<?xml version="1.0" encoding="UTF-8"?>
<svg width="2437px" height="2437px" enable-background="new 0 0 999.86 1000" version="1.1" viewBox="0 0 999.86 1000" xml:space="preserve" xmlns="http://www.w3.org/2000/svg" xmlns:cc="http://creativecommons.org/ns#" xmlns:dc="http://purl.org/dc/elements/1.1/" xmlns:rdf="http://www.w3.org/1999/02/22-rdf-syntax-ns#" xmlns:xlink="http://www.w3.org/1999/xlink"><metadata><rdf:RDF><cc:Work rdf:about=""><dc:format>image/svg+xml</dc:format><dc:type rdf:resource="http://purl.org/dc/dcmitype/StillImage"/><dc:title/></cc:Work></rdf:RDF></metadata><defs><radialGradient id="radialGradient5991-1-1" cx="1166.5" cy="313.88" r="29.625" gradientTransform="matrix(1.5939 1.0939 -.20319 .29605 -631.01 -1047.6)" gradientUnits="userSpaceOnUse" xlink:href="#linearGradient4203"/><linearGradient id="linearGradient4203"><stop stop-color="#efbb33" offset="0"/><stop stop-color="#efbb33" stop-opacity="0" offset="1"/></linearGradient><linearGradient id="linearGradient5993-9" x1="734.88" x2="736.49" y1="204.15" y2="203.91" gradientUnits="userSpaceOnUse" xlink:href="#linearGradient4203"/><linearGradient id="linearGradient5995-2" x1="720.43" x2="720.56" y1="-37.52" y2="-56.257" gradientTransform="matrix(1 0 0 1.028 16.263 326.83)" gradientUnits="userSpaceOnUse"><stop stop-color="#f6d251" offset="0"/><stop stop-color="#f6d251" stop-opacity="0" offset="1"/></linearGradient></defs>
<g transform="matrix(2.8812 0 0 3.0273 -1969.6 -215.76)" fill="#fff" stroke="#f6d251"><ellipse transform="translate(1072.5,-12.308)" cx="-215.36" cy="248.74" rx="172.29" ry="163.91" fill="#2a468c" stroke="#f6d251" stroke-linecap="round" stroke-width="2.5"/></g><ellipse cx="499.89" cy="500.03" rx="390.78" ry="390.67" fill="#fff" stroke="#f6d251" stroke-linecap="round" stroke-width="5.8125"/><g><g transform="matrix(2.0854 0 0 2.0855 -27.861 -21.777)" fill="#f6d251"><g transform="translate(452.62 19.036)"><g transform="translate(-452.26 -19.143)"><g fill="#f6d251"><path d="m232.66 131.98 8.566 67.365 22.314-0.10575 7.6142-67.893-19.459-20.516z" fill="#f6d251"/></g></g><g transform="matrix(1 0 0 -1 -453.01 479.54)" stroke="#fff" stroke-width="2.5"><path d="m243.63 379.91 3.4398-66.852"/><path d="m261.59 379.58-3.4398-66.852"/></g></g><g transform="matrix(1 0 0 -1 452.62 481.65)"><g transform="translate(-452.26 -19.143)"><g fill="#f6d251"><path d="m232.66 131.98 8.566 67.365 22.314-0.10575 7.6142-67.893-19.459-20.516z" fill="#f6d251"/></g></g><g transform="matrix(1 0 0 -1 -453.01 479.54)" stroke="#fff" stroke-width="2.5"><path d="m243.63 379.91 3.4398-66.852"/><path d="m261.59 379.58-3.4398-66.852"/></g></g><g transform="matrix(0 1 1 0 21.99 449.62)"><g transform="translate(-452.26 -19.143)"><g fill="#f6d251"><path d="m232.66 131.98 8.566 67.365 22.314-0.10575 7.6142-67.893-19.459-20.516z" fill="#f6d251"/></g></g><g transform="matrix(1 0 0 -1 -453.01 479.54)" stroke="#fff" stroke-width="2.5"><path d="m243.63 379.91 3.4398-66.852"/><path d="m261.59 379.58-3.4398-66.852"/></g></g><g transform="rotate(90 16.82 466.44)"><g transform="translate(-452.26 -19.143)"><g fill="#f6d251"><path d="m232.66 131.98 8.566 67.365 22.314-0.10575 7.6142-67.893-19.459-20.516z" fill="#f6d251"/></g></g><g transform="matrix(1 0 0 -1 -453.01 479.54)" stroke="#fff" stroke-width="2.5"><path d="m243.63 379.91 3.4398-66.852"/><path d="m261.59 379.58-3.4398-66.852"/></g></g><g transform="rotate(46.256 3.9542 766.44)"><g transform="translate(-452.26 -19.143)"><g fill="#f6d251"><path d="m232.66 131.98 8.566 67.365 22.314-0.10575 7.6142-67.893-19.459-20.516z" fill="#f6d251"/></g></g><g transform="matrix(1 0 0 -1 -453.01 479.54)" stroke="#fff" stroke-width="2.5"><path d="m243.63 379.91 3.4398-66.852"/><path d="m261.59 379.58-3.4398-66.852"/></g></g><g transform="matrix(-.69144 .72243 .72243 .69144 -50.849 233.64)"><g transform="translate(-452.26 -19.143)"><g fill="#f6d251"><path d="m232.66 131.98 8.566 67.365 22.314-0.10575 7.6142-67.893-19.459-20.516z" fill="#f6d251"/></g></g><g transform="matrix(1 0 0 -1 -453.01 479.54)" stroke="#fff" stroke-width="2.5"><path d="m243.63 379.91 3.4398-66.852"/><path d="m261.59 379.58-3.4398-66.852"/></g></g><g transform="rotate(226.26 31.629 144.44)"><g transform="translate(-452.26 -19.143)"><g fill="#f6d251"><path d="m232.66 131.98 8.566 67.365 22.314-0.10575 7.6142-67.893-19.459-20.516z" fill="#f6d251"/></g></g><g transform="matrix(1 0 0 -1 -453.01 479.54)" stroke="#fff" stroke-width="2.5"><path d="m243.63 379.91 3.4398-66.852"/><path d="m261.59 379.58-3.4398-66.852"/></g></g><g transform="matrix(.69144 -.72243 -.72243 -.69144 555.42 267.16)"><g transform="translate(-452.26 -19.143)"><g fill="#f6d251"><path d="m232.66 131.98 8.566 67.365 22.314-0.10575 7.6142-67.893-19.459-20.516z" fill="#f6d251"/></g></g><g transform="matrix(1 0 0 -1 -453.01 479.54)" stroke="#fff" stroke-width="2.5"><path d="m243.63 379.91 3.4398-66.852"/><path d="m261.59 379.58-3.4398-66.852"/></g></g></g><g transform="matrix(2.0854 0 0 2.0855 -25.728 -19.433)" fill="#f6d251"><ellipse transform="matrix(1.1783 0 0 1.1705 -53.424 -50.18)" cx="259.31" cy="255.92" rx="54.569" ry="55.838" fill="#f6d251"/></g><path d="m497.98 295.94-176.88 298.69 353.59 0.28964z" fill="#bc2b38"/></g><g transform="matrix(2.0854 0 0 2.0855 -1717.3 503.36)"><path transform="translate(6.7175 -333.05)" d="m1059.7 284.28c-2.1497-0.0663-3.8851 0.62939-5.3438 4.7188-1.996 0.14744-4.3052-0.0761-4.7812 1.7812l-11.063 1.5c-1.3991 0.11916-1.1428 2.4903-0.1562 3.4375-0.9435 2.7695 0.308 3.1538 1.5 3.5938 5.6465-3.6552 7.1262 5.4887 1.1875 4.0312-1.8835 0.38365-1.9409 1.275-1.6563 2.25 1.4399 2.8691 3.5854 2.6003 4.8126 2.5312 0.9447-0.0695 2.2541-0.95754 3.2187-1.0312 2.1527-0.35674 2.2486 4.8028-0.75 5.2188-1.7858 0.13696-3.5852 0.26547-5.4687-0.28125-0.8072-0.32535-1.865-1.4546-1.9063-1.5312-0.043-0.0794-0.7344 0.81464-0.125 1.8125-4.3751-0.50729-7.2566 1.3565-6.7813 2.5625 1.5408-0.21035 2.5409-0.0355 2.6876 0.75-3.6517 1.3911-3.635 3.0532-4.9376 4.625h-2.8437c0.5769-1.187 0.3113-1.9856-0.9063-2.375l-4.3437-0.15625c-1.6521 0.35676-2.322 0.86955-1.7813 1.625-3.8896 1.047-1.9678 1.5707-1.8124 2.25l-0.1384 0.0688c-0.1023 0.59823-1.4408 1.2326 0.013 2.2683-0.058 0.44039-1.2289 1.5298-0.125 2.3192-1.2049 1.4959 0.3946 1.7667 1.3281 2.1094 2.1653 0.79041 3.9726-0.49805 5.9531-0.48435l-0.125 4.9375-8.625-0.4375c-0.9544-0.0306-1.9183 0.85816-2.3125 1.5-1.0219 1.4486-3.0253 0.29679-4.9375 0-4.5715 1.0884-3.8291 3.529-4.5625 5.5312 0.3286 0.24623-0.2601 0.9436 2.1875 0.5-0.4034 1.6279-0.4189 1.5329 2 1-0.1621 1.9817-0.062 1.7749 2.7812 2 0.8475-1.3673 1.6838-0.97889 2.5313-0.8125 2.893 0.0257 3.1558-1.2356 4.2813-2.0938 2.668-1.1372 4.186-0.41464 6.5-0.3125 4.6074 10.954 10.579 18.23 20.969 24 7.5153 3.905 20.383 3.053 25.156-0.25 5.5545-3.4058 8.768-6.3973 13.531-12.969 5.6479-4.2664 9.0264-10.954 10.094-18.406 4.3602-2.4161 6.1307-6.8396 5.9062-12.844 0.1096-1.3502 1.0942-3.0044 1.8125-4.5-3.8225 1.1942-6.6148 9.8664-9.5625-1.3438-2.0341 3.3738-4.1768 11.093-10.344 1.125 0.6794 2.3511 1.2472 5.2985 1.3438 6.9375 0.1839 6.1413 3.0888 8.4776 5.5625 11.375 1.5864 3.0774 0.023 3.9253-1.0625 5.0938-0.1132-4.0162-3.6668-7.3952-5.5312-8.9375-2.8029-2.0742-6.4471-3.3379-9.7813-1.9688-3.471 1.5108-6.7073 3.6574-7.5625 6.7812-1.111 4.4886-0.4014 6.9366 0.625 9.75 1.6373 3.7518 4.9607 5.6047 8.1875 6.5-15.32 8.0488-21.359-8.0229-20.25-10.844 0.4865-3.4581 3.1756-6.7501 5.3437-10.031 2.338-4.4265 1.424-7.7918 2-7.1875 0.5541 0.74869-0.7355 3.8497-0.2499 4.0312 2.24-1.2058 3.8258-3.2097 4.3749-6.4688 1.8426 1.6743 4.2935 0.92695 5.8438 0.84375-0.8973-0.0997-1.9708 0.07-2.868-1.625 1.9836 0.36748 4.3768-1.2967 5.9618-2.125-1.433 0.23607-2.263-0.24464-3-0.84375 1.7995-0.44837 3.189 0.5572 5.25-1.0625 2.4562-1.3411 3.0401-3.3448 4.0312-5.2188-1.9941 0.0752-3.9747 0.42051-5.9688-1.8125l0.4376 0.15625c2.1104-0.48563 3.5561-1.2494 3.875-2.5312-0.9223-0.36964-1.8277 0.32959-2.75-1.2812l-2.4688-3.2188c1.7261 1.7179 2.6116 2.3584 5.3125 0.21875-1.4177-1.1735-4.4241-0.44945-5.625-4.0938 3.5292 2.2014 2.9389-3.9311 4.7813-2.7812-1.1211-1.0774-3.2113-0.15062-5.9688-2.3125 1.0645-0.5733 0.5476-2.6532 1.0312-3.75-4.0376 1.0963-3.8171-0.8398-7.3124 0.3125 0.5784-1.7607 2.4357-1.9896 3.4374-2.3125-1.3222 0.0462-2.5272-1.9005-4.5624-0.25-1.2523 0.5017-2.2073-0.77579-3.2813-1.3438-0.7942-0.0877-1.5209-0.19724-2.2187-0.21875zm16.656 49.25c1.6481-0.21457 3.4629 0.69019 4.5625 2.4688 1.4661 2.3714 1.1034 5.3856-0.8125 6.7188s-4.6589 0.49642-6.125-1.875-1.1034-5.3856 0.8125-6.7188c0.479-0.3333 1.0131-0.52223 1.5625-0.59375z" fill="#f6d251"/><path transform="translate(-16.263 -325.27)" d="m1091.8 287.44c-0.9739 1.6092-1.7156 3.2348-5 2.8125-1.5795 0.14305-0.9175 1.309-2.875 1.3125-1.4516 0.10282-1.4687 0.56598-1.9375 0.9375l1.9375 0.3125c-3.081 0.95139-5.2114 2.4732-7.125 4.125 2.6747-0.85501 5.0323-1.1285 7-0.6875-3.6111 1.3125-5.6133 3.1077-6.875 5.125 3.5504-0.35564 6.0635-0.27455 7.375 0.3125-4.7058-0.88427-10.468 0.7088-11.235 3.416 3.6849-0.23525 4.3047 0.10927 6.4223 0.39645-2.4495 0.0255-11.548-1.1562-18.084 2.9192-3.9777 2.931-3.1368 5.4128-2.9786 7.0808 2.4925-3.4199 5.5907-4.3296 9.8125-3.4375-3.9993 3.311-4.5067 7.4491-4.0625 11.812 1.599-2.8443 3.5805-5.627 7.3719-6.625 1.4417-2.5995 2.1661-4.1974 2.3156-3.625-1.5603 2.4737-2.6452 5.0492-2.5625 7.875 2.4199-2.1779 4.8649-4.3457 8.4375-6.0625l-0.3125 4.1875c1.7557-1.4412 3.7867-1.7202 5.0625-5.1875 0.02 1.4438-0.03 2.8876-0.3605 4.3315 2.5527-1.4008 6.0064-2.555 4.798-6.7065 1.8279 2.0506 4.0774 1.2271 5.75 0.5625-1.3649-0.589-2.961-1.0476-3.9551-2.6831-0.8178-0.36049-0.938-4.1504-1.0663-7.9002-0.2204-0.48846-1.1913-0.97807-1.7583-1.0044-0.9538-0.59938 0.054-1.3815 0.5922-1.2248 2.9584 0.1503 4.6816-0.53751 6-1.5-1.4128-0.34478-2.9245-0.39299-4.0625-1.5625l3.6875-2.5625c0.9025-0.78759 0.6188-1.931 0.375-3.0625-0.3819 0.64148-0.4251 1.2632-1.6875 1.125-0.7557-1e-4 -1.7638 0.22512-0.9375-1.1875 0.973-1.2987 0.9089-2.5031-0.062-3.625z" fill="#efbb33" opacity=".90265"/><g transform="translate(-126.22 -307.24)"><path d="m1185.3 306.53c-1.1643 1.4244-5.8391 4.6176-7.7587 5.8981l-0.3517 0.29549zm-7.1148 5.665c-1.4252 0.65184-1.4469 0.56066-4.1976 0.96002-2.2565 3.1606-4.1142 3.2638-5.875 2.625-3.1989-0.51444-6.2446-1.7992-9.5938-1.5625 4.5909 10.793 10.546 18 20.844 23.719 7.5153 3.905 20.383 3.053 25.156-0.25 5.1343-3.1482 8.2933-5.9677 12.5-11.562l0.75-1.25c-3.3457 2.4376-3.6621 6.4708-10.674 6.6169-3.3312 0.0727-8.7309 2.2592-11.912 1.0204-2.9355-1.1404-6.4056-1.3919-8.0829-2.375-5.9725-4.3641-7.587-12.418-8.9142-17.941z" fill="url(#radialGradient5991-1-1)"/></g><g transform="translate(6.7175 -333.05)" fill="none" stroke="#e7ad46"><g><path d="m1024.9 332.81c6.3009-0.64405 7.7907-3.4263 9.75-6" stroke-width=".6"/><path d="m1025.2 339.75c3.4123-0.29052 6.5004 1.0399 9.75 1.5625 1.7609 0.63881 3.6185 0.53564 5.875-2.625 8.7189-1.2658 9.2425-4.0927 11.312-6.625" stroke-width=".6"/><g stroke-width=".5"><path d="m1065.4 286c-3.4811 0.0238-4.8179 2.0271-6.1875 4"/><path d="m1066.9 288.31c-1.602-0.25552-2.7501 0.51023-3.6875 1.75"/><path d="m1072.8 292.19c-2.1465 0.0983-5.3033-2.9544-7.125 0.4375"/></g><path d="m1074.3 312.06c-4.3277 0.40692-0.2989-7.8101-4.0625-8.8125" stroke-width=".6"/></g><path d="m1068.8 318.75c-3.0152-2.081-0.2351-10.342-4-10" stroke-linecap="round" stroke-width=".6"/><g><path d="m1073.9 297.46c-0.7507-1.1464-3.1215-4.6098-6.3299-2.4814" stroke-width=".5"/><path d="m1074.1 300.86c-0.7507-1.1464-0.7153-2.1723-3.5487-2.4501" stroke-width=".5"/><path d="m1007 339.82c0.6005-1.6103 0.4138-2.2964 3.5107-3.2301" stroke-width=".35"/><path d="m1009.2 340.89c0.6005-1.6103 0.4138-2.2964 3.5107-3.2301" stroke-width=".35"/></g></g><path transform="translate(-16.263 -325.27)" d="m1110.1 311.43c4.0624 4.0667 2.2841 5.4134 2.5296 7.9359 0.1419 1.563 1.9953 1.0724 1.4375-0.65625-0.1633-2.2935-1.6569-4.0912-1.6875-7.375-0.6284 0.29464-1.3572 0.38856-2.2796 0.0953z" fill="#e7ad46" opacity=".88938"/><path transform="translate(-16.263 -325.27)" d="m1120.7 310.87c-3.736 4.4436-2.1754 6.2126-2.4943 8.3274-0.1463 1.673-2.1853 1.4489-1.6104-0.4014 0.5308-2.1502 1.729-4.5998 1.7916-7.9695 0.5429 0.46591 1.2256 0.75459 2.3131 0.0351z" fill="#e7ad46" opacity=".88938"/><g fill="#efb625"><path transform="translate(114.02 -282.58)" d="m971.11 293.88c-0.076 0-0.146 0.016-0.2177 0.0278 0.524 0.0256 0.9523 0.40521 0.9523 0.86259 0 0.47398-0.456 0.86259-1.0067 0.86259-0.3743 0-0.7001-0.18255-0.8706-0.44521 0.1426 0.42128 0.6089 0.72346 1.1427 0.72346 0.6483 0 1.1698-0.44166 1.1698-1.0017 0-0.56006-0.5215-1.0295-1.1698-1.0295z"/><path transform="translate(114.02 -282.58)" d="m969 295.54c-0.0709 0.0274-0.13039 0.0676-0.193 0.10449 0.49793-0.16521 1.0344 0.0343 1.1994 0.46084 0.17103 0.44205-0.11402 0.96902-0.62762 1.1677-0.34908 0.13506-0.7188 0.0824-0.9726-0.10107 0.28501 0.34144 0.82893 0.455 1.3268 0.26238 0.60462-0.23393 0.93162-0.83401 0.72953-1.3563-0.20209-0.52233-0.85786-0.772-1.4625-0.53807z"/><path transform="translate(114.02 -282.58)" d="m966.61 295.47c-0.0758-6e-3 -0.14681 4e-3 -0.21923 0.0103 0.52028 0.0674 0.91688 0.48 0.88036 0.9359-0.0379 0.47247-0.52345 0.82341-1.0724 0.77942-0.3731-0.0299-0.68329-0.23787-0.83225-0.51334 0.10849 0.43132 0.54916 0.76978 1.0813 0.81242 0.64622 0.0518 1.2013-0.34679 1.2461-0.90505 0.0447-0.55827-0.43759-1.0679-1.0838-1.1197z"/><path transform="translate(114.02 -282.58)" d="m964.41 294.35c-0.073-0.0212-0.14458-0.0258-0.21677-0.0343 0.49582 0.17145 0.80056 0.65587 0.67239 1.0949-0.13288 0.45498-0.67948 0.70022-1.2081 0.54588-0.3593-0.10491-0.62089-0.37143-0.71093-0.67138 0.0188 0.44436 0.38174 0.86511 0.89415 1.0147 0.62231 0.18171 1.2467-0.0961 1.4037-0.6337 0.15693-0.53762-0.21206-1.1344-0.83437-1.3161z"/><path transform="translate(114.02 -282.58)" d="m966.53 292.57c-0.073-0.0212-0.14458-0.0258-0.21677-0.0343 0.49582 0.17145 0.80056 0.65587 0.67239 1.0949-0.13288 0.45498-0.67948 0.70022-1.2081 0.54588-0.3593-0.10491-0.62089-0.37143-0.71093-0.67138 0.0188 0.44436 0.38174 0.86511 0.89415 1.0147 0.62231 0.18171 1.2467-0.0961 1.4037-0.6337 0.15693-0.53762-0.21206-1.1344-0.83437-1.3161z"/><path transform="translate(114.02 -282.58)" d="m968.94 293.47c-0.073-0.0212-0.14458-0.0258-0.21677-0.0343 0.49582 0.17145 0.80056 0.65587 0.67239 1.0949-0.13288 0.45498-0.67948 0.70022-1.2081 0.54588-0.3593-0.10491-0.62089-0.37143-0.71093-0.67138 0.0188 0.44436 0.38174 0.86511 0.89415 1.0147 0.62231 0.18171 1.2467-0.0961 1.4037-0.6337 0.15693-0.53762-0.21206-1.1344-0.83437-1.3161z"/><path transform="translate(114.02 -282.58)" d="m962.88 291.82c-0.073-0.0212-0.14458-0.0258-0.21677-0.0343 0.49582 0.17145 0.80056 0.65587 0.67239 1.0949-0.13288 0.45498-0.67948 0.70022-1.2081 0.54588-0.3593-0.10491-0.62089-0.37143-0.71093-0.67138 0.0188 0.44436 0.38174 0.86511 0.89415 1.0147 0.62231 0.18171 1.2467-0.0961 1.4037-0.6337 0.15693-0.53762-0.21206-1.1344-0.83437-1.3161z"/><path transform="translate(114.02 -282.58)" d="m965.27 290.41c-0.0662-0.0206-0.13103-0.025-0.19646-0.0333 0.44935 0.1662 0.72553 0.63577 0.60937 1.0614-0.12042 0.44104-0.61579 0.67876-1.0949 0.52915-0.32563-0.10169-0.5627-0.36005-0.6443-0.6508 0.017 0.43074 0.34596 0.8386 0.81034 0.98362 0.56399 0.17614 1.1298-0.0932 1.2721-0.61428 0.14222-0.52115-0.19218-1.0997-0.75616-1.2758z"/><path transform="translate(114.02 -282.58)" d="m960.44 290.44c-0.073-0.0212-0.14458-0.0258-0.21677-0.0343 0.49582 0.17145 0.80056 0.65587 0.67239 1.0949-0.13288 0.45498-0.67948 0.70022-1.2081 0.54588-0.3593-0.10491-0.62089-0.37143-0.71093-0.67138 0.0188 0.44436 0.38174 0.86511 0.89415 1.0147 0.62231 0.18171 1.2467-0.0961 1.4037-0.6337 0.15693-0.53762-0.21206-1.1344-0.83437-1.3161z"/><path transform="translate(114.02 -282.58)" d="m962.46 289.06c-0.0662-0.0206-0.13103-0.025-0.19646-0.0333 0.44935 0.1662 0.72553 0.63577 0.60937 1.0614-0.12042 0.44104-0.61579 0.67876-1.0949 0.52915-0.32563-0.10169-0.5627-0.36005-0.6443-0.6508 0.017 0.43074 0.34596 0.8386 0.81034 0.98362 0.56399 0.17614 1.1298-0.0932 1.2721-0.61428 0.14222-0.52115-0.19218-1.0997-0.75616-1.2758z"/><path transform="translate(114.02 -282.58)" d="m964.72 287.58c-0.051-0.047-0.10769-0.0787-0.16326-0.11425 0.33484 0.34266 0.38325 0.88528 0.096 1.2201-0.29774 0.34695-0.84719 0.34955-1.216 9e-3 -0.25068-0.23138-0.35422-0.56639-0.30341-0.86406-0.16915 0.3965-0.0466 0.90596 0.31088 1.2359 0.43417 0.40076 1.0608 0.39977 1.4126-0.0101 0.35175-0.40999 0.29741-1.076-0.13676-1.4767z"/><path transform="translate(114.02 -282.58)" d="m960.22 287.46c-0.051-0.047-0.10769-0.0787-0.16326-0.11425 0.33484 0.34266 0.38325 0.88528 0.096 1.2201-0.29774 0.34695-0.84719 0.34955-1.216 9e-3 -0.25068-0.23138-0.35422-0.56639-0.30341-0.86406-0.16915 0.3965-0.0466 0.90596 0.31088 1.2359 0.43417 0.40076 1.0608 0.39977 1.4126-0.0101 0.35175-0.40999 0.29741-1.076-0.13676-1.4767z"/><path transform="translate(114.02 -282.58)" d="m962.84 286.24c-0.051-0.047-0.10769-0.0787-0.16326-0.11425 0.33484 0.34266 0.38325 0.88528 0.096 1.2201-0.29774 0.34695-0.84719 0.34955-1.216 9e-3 -0.25068-0.23138-0.35422-0.56639-0.30341-0.86406-0.16915 0.3965-0.0466 0.90596 0.31088 1.2359 0.43417 0.40076 1.0608 0.39977 1.4126-0.0101 0.35175-0.40999 0.29741-1.076-0.13676-1.4767z"/><path transform="translate(114.02 -282.58)" d="m965.4 285.24c-0.051-0.047-0.10769-0.0787-0.16326-0.11425 0.33484 0.34266 0.38325 0.88528 0.096 1.2201-0.29774 0.34695-0.84719 0.34955-1.216 9e-3 -0.25068-0.23138-0.35422-0.56639-0.30341-0.86406-0.16915 0.3965-0.0466 0.90596 0.31088 1.2359 0.43417 0.40076 1.0608 0.39977 1.4126-0.0101 0.35175-0.40999 0.29741-1.076-0.13676-1.4767z"/><path transform="translate(114.02 -282.58)" d="m960.93 285.03c-0.0241-0.065-0.0603-0.11899-0.0937-0.17587 0.14302 0.45725-0.0599 0.96281-0.46779 1.1309-0.42271 0.17417-0.91358-0.0727-1.0878-0.54349-0.11847-0.31991-0.0588-0.66544 0.12148-0.90769-0.33058 0.27666-0.45242 0.78629-0.28347 1.2425 0.20519 0.55409 0.76415 0.83743 1.2636 0.63168 0.49944-0.20587 0.75307-0.82409 0.54787-1.3782z"/><path transform="translate(114.02 -282.58)" d="m964.05 284.33c0.01-0.0686 4e-3 -0.13335 1e-3 -0.19927-0.0918 0.47022-0.51085 0.81831-0.94959 0.77206-0.45467-0.048-0.76892-0.49868-0.69815-0.99567 0.048-0.33774 0.26494-0.61325 0.53878-0.74052-0.42241 0.086-0.77208 0.47626-0.84058 0.9579-0.0832 0.58497 0.27359 1.1002 0.81073 1.1568 0.53723 0.0566 1.0545-0.36644 1.1377-0.9514z"/><path transform="translate(114.02 -282.58)" d="m961.92 282.77c0.01-0.0686 4e-3 -0.13335 1e-3 -0.19927-0.0918 0.47022-0.51085 0.81831-0.94959 0.77206-0.45467-0.048-0.76892-0.49868-0.69815-0.99567 0.048-0.33774 0.26494-0.61325 0.53878-0.74052-0.42241 0.086-0.77208 0.47626-0.84058 0.9579-0.0832 0.58497 0.27359 1.1002 0.81073 1.1568 0.53723 0.0566 1.0545-0.36644 1.1377-0.9514z"/><path transform="translate(114.02 -282.58)" d="m963.74 280.61c0.01-0.0686 4e-3 -0.13335 1e-3 -0.19927-0.0918 0.47022-0.51085 0.81831-0.94959 0.77206-0.45467-0.048-0.76892-0.49868-0.69815-0.99567 0.048-0.33774 0.26494-0.61325 0.53878-0.74052-0.42241 0.086-0.77208 0.47626-0.84058 0.9579-0.0832 0.58497 0.27359 1.1002 0.81073 1.1568 0.53723 0.0566 1.0545-0.36644 1.1377-0.9514z"/><path transform="translate(114.02 -282.58)" d="m965.42 282.11c0.01-0.0686 4e-3 -0.13335 1e-3 -0.19927-0.0918 0.47022-0.51085 0.81831-0.94959 0.77206-0.45467-0.048-0.76892-0.49868-0.69815-0.99567 0.048-0.33774 0.26494-0.61325 0.53878-0.74052-0.42241 0.086-0.77208 0.47626-0.84058 0.9579-0.0832 0.58497 0.27359 1.1002 0.81073 1.1568 0.53723 0.0566 1.0545-0.36644 1.1377-0.9514z"/><path transform="translate(114.02 -282.58)" d="m967.05 283.7c0.01-0.0686 4e-3 -0.13335 1e-3 -0.19927-0.0918 0.47022-0.51085 0.81831-0.94959 0.77206-0.45467-0.048-0.76892-0.49868-0.69815-0.99567 0.048-0.33774 0.26494-0.61325 0.53878-0.74052-0.42241 0.086-0.77208 0.47626-0.84058 0.9579-0.0832 0.58497 0.27359 1.1002 0.81073 1.1568 0.53723 0.0566 1.0545-0.36644 1.1377-0.9514z"/><path transform="translate(114.02 -282.58)" d="m966.7 279.36c0.0377-0.0582 0.0593-0.11953 0.0841-0.18069-0.2796 0.38905-0.80567 0.53057-1.1851 0.3055-0.39318-0.23331-0.49076-0.77399-0.2191-1.1961 0.18453-0.28692 0.49663-0.44681 0.79859-0.44823-0.41977-0.0981-0.90037 0.11073-1.1636 0.51988-0.31966 0.49692-0.21034 1.114 0.25418 1.3896 0.46463 0.27557 1.1112 0.1069 1.4308-0.39002z"/><path transform="translate(114.02 -282.58)" d="m968.82 281.86c0.0377-0.0582 0.0593-0.11953 0.0841-0.18069-0.2796 0.38905-0.80567 0.53057-1.1851 0.3055-0.39318-0.23331-0.49076-0.77399-0.2191-1.1961 0.18453-0.28692 0.49663-0.44681 0.79859-0.44823-0.41977-0.0981-0.90037 0.11073-1.1636 0.51988-0.31966 0.49692-0.21034 1.114 0.25418 1.3896 0.46463 0.27557 1.1112 0.1069 1.4308-0.39002z"/><path transform="translate(114.02 -282.58)" d="m969.66 279.31c0.0566-0.0401 0.0994-0.0891 0.14505-0.13669-0.40382 0.25781-0.94489 0.1944-1.214-0.15522-0.27879-0.36235-0.16915-0.90071 0.23955-1.1922 0.27769-0.19815 0.62681-0.23106 0.90782-0.12053-0.35358-0.24661-0.87734-0.23066-1.2734 0.0519-0.48098 0.34316-0.60801 0.95682-0.27862 1.3849 0.3295 0.42807 0.99256 0.51091 1.4735 0.16773z"/><path transform="translate(114.02 -282.58)" d="m971.1 281.69c0.0663-0.0205 0.12223-0.0537 0.18044-0.0847-0.46407 0.11904-0.95839-0.10992-1.105-0.52601-0.15191-0.43121 0.12014-0.90855 0.59935-1.0581 0.32563-0.10168 0.66761-0.0241 0.90014 0.16855-0.25905-0.34456-0.76167-0.49272-1.2261-0.34774-0.564 0.17608-0.87605 0.71953-0.69656 1.229 0.1796 0.50947 0.78377 0.79493 1.3478 0.61883z"/><path transform="translate(114.02 -282.58)" d="m973.16 279.91c0.0663-0.0205 0.12223-0.0537 0.18044-0.0847-0.46407 0.11904-0.95839-0.10992-1.105-0.52601-0.15191-0.43121 0.12014-0.90855 0.59935-1.0581 0.32563-0.10168 0.66761-0.0241 0.90014 0.16855-0.25905-0.34456-0.76167-0.49272-1.2261-0.34774-0.564 0.17608-0.87605 0.71953-0.69656 1.229 0.1796 0.50947 0.78377 0.79493 1.3478 0.61883z"/><path transform="translate(114.02 -282.58)" d="m973.94 282.46c0.0692 6e-3 0.13344-4e-3 0.199-0.0115-0.47503-0.0622-0.84864-0.45869-0.82991-0.89947 0.0195-0.45677 0.44964-0.79858 0.95007-0.75903 0.34008 0.0268 0.62863 0.22609 0.77276 0.49143-0.11221-0.41621-0.52359-0.74078-1.0086-0.77904-0.58902-0.0465-1.0809 0.34182-1.1039 0.88147-0.0229 0.53971 0.43163 1.0295 1.0207 1.076z"/><path transform="translate(114.02 -282.58)" d="m976.16 283.96c0.0692 6e-3 0.13344-4e-3 0.199-0.0115-0.47503-0.0622-0.84864-0.45869-0.82991-0.89947 0.0195-0.45677 0.44964-0.79858 0.95007-0.75903 0.34008 0.0268 0.62863 0.22609 0.77276 0.49143-0.11221-0.41621-0.52359-0.74078-1.0086-0.77904-0.58902-0.0465-1.0809 0.34182-1.1039 0.88147-0.0229 0.53971 0.43163 1.0295 1.0207 1.076z"/><path transform="translate(114.02 -282.58)" d="m976.9 286.09c0.0378 0.0583 0.0851 0.10284 0.13132 0.14997-0.24273-0.41305-0.15938-0.95142 0.19994-1.2074 0.3724-0.2652 0.90635-0.13576 1.1826 0.28341 0.18777 0.28482 0.20777 0.63493 0.0869 0.91165 0.25949-0.34421 0.26289-0.86821-5e-3 -1.2744-0.32514-0.49335-0.93372-0.64294-1.3737-0.32957-0.43994 0.31347-0.54722 0.97301-0.22203 1.4663z"/><path transform="translate(114.02 -282.58)" d="m977 288.81c0.0378 0.0583 0.0851 0.10284 0.13132 0.14997-0.24273-0.41305-0.15938-0.95142 0.19994-1.2074 0.3724-0.2652 0.90635-0.13576 1.1826 0.28341 0.18777 0.28482 0.20777 0.63493 0.0869 0.91165 0.25949-0.34421 0.26289-0.86821-5e-3 -1.2744-0.32514-0.49335-0.93372-0.64294-1.3737-0.32957-0.43994 0.31347-0.54722 0.97301-0.22203 1.4663z"/><path transform="translate(114.02 -282.58)" d="m971.18 297.35c-0.039 0.0377-0.066 0.0804-0.0952 0.12285 0.2799-0.24731 0.70429-0.26378 0.95374-0.027 0.25845 0.24544 0.23899 0.67331-0.0406 0.94715-0.18996 0.18615-0.45489 0.25364-0.68467 0.20235 0.30208 0.14726 0.70356 0.0718 0.97444-0.1939 0.32904-0.32234 0.35279-0.81033 0.0474-1.1003-0.30545-0.28992-0.82614-0.2737-1.1552 0.0487z"/><path transform="translate(114.02 -282.58)" d="m973.33 296.85c-0.039 0.0377-0.066 0.0804-0.0952 0.12285 0.2799-0.24731 0.70429-0.26378 0.95374-0.027 0.25845 0.24544 0.23899 0.67331-0.0406 0.94715-0.18996 0.18615-0.45489 0.25364-0.68467 0.20235 0.30208 0.14726 0.70356 0.0718 0.97444-0.1939 0.32904-0.32234 0.35279-0.81033 0.0474-1.1003-0.30545-0.28992-0.82614-0.2737-1.1552 0.0487z"/><path transform="translate(114.02 -282.58)" d="m972.62 294.81c-0.039 0.0377-0.066 0.0804-0.0952 0.12285 0.2799-0.24731 0.70429-0.26378 0.95374-0.027 0.25845 0.24544 0.23899 0.67331-0.0406 0.94715-0.18996 0.18615-0.45489 0.25364-0.68467 0.20235 0.30208 0.14726 0.70356 0.0718 0.97444-0.1939 0.32904-0.32234 0.35279-0.81033 0.0474-1.1003-0.30545-0.28992-0.82614-0.2737-1.1552 0.0487z"/><path transform="translate(114.02 -282.58)" d="m973.69 293.32c-0.0176 0.0513-0.0222 0.10161-0.029 0.1527 0.13694-0.3475 0.50748-0.55504 0.83729-0.45748 0.34176 0.10117 0.51888 0.49115 0.39427 0.86214-0.0846 0.25214-0.28993 0.43266-0.51792 0.4914 0.33601-6e-3 0.65934-0.25578 0.77988-0.61556 0.14661-0.43667-0.054-0.88215-0.4578-1.0016-0.40384-0.11944-0.86028 0.13164-1.0068 0.56834z"/><path transform="translate(114.02 -282.58)" d="m975.01 294.91c-0.0176 0.0513-0.0222 0.10161-0.029 0.1527 0.13694-0.3475 0.50748-0.55504 0.83729-0.45748 0.34176 0.10117 0.51888 0.49115 0.39427 0.86214-0.0846 0.25214-0.28993 0.43266-0.51792 0.4914 0.33601-6e-3 0.65934-0.25578 0.77988-0.61556 0.14661-0.43667-0.054-0.88215-0.4578-1.0016-0.40384-0.11944-0.86028 0.13164-1.0068 0.56834z"/><path transform="translate(114.02 -282.58)" d="m975.63 296.79c-0.0176 0.0513-0.0222 0.10161-0.029 0.1527 0.13694-0.3475 0.50748-0.55504 0.83729-0.45748 0.34176 0.10117 0.51888 0.49115 0.39427 0.86214-0.0846 0.25214-0.28993 0.43266-0.51792 0.4914 0.33601-6e-3 0.65934-0.25578 0.77988-0.61556 0.14661-0.43667-0.054-0.88215-0.4578-1.0016-0.40384-0.11944-0.86028 0.13164-1.0068 0.56834z"/><path transform="translate(114.02 -282.58)" d="m977.47 295.44c-0.0176 0.0513-0.0222 0.10161-0.029 0.1527 0.13694-0.3475 0.50748-0.55504 0.83729-0.45748 0.34176 0.10117 0.51888 0.49115 0.39427 0.86214-0.0846 0.25214-0.28993 0.43266-0.51792 0.4914 0.33601-6e-3 0.65934-0.25578 0.77988-0.61556 0.14661-0.43667-0.054-0.88215-0.4578-1.0016-0.40384-0.11944-0.86028 0.13164-1.0068 0.56834z"/><path transform="translate(114.02 -282.58)" d="m976.63 293.76c-0.0176 0.0513-0.0222 0.10161-0.029 0.1527 0.13694-0.3475 0.50748-0.55504 0.83729-0.45748 0.34176 0.10117 0.51888 0.49115 0.39427 0.86214-0.0846 0.25214-0.28993 0.43266-0.51792 0.4914 0.33601-6e-3 0.65934-0.25578 0.77988-0.61556 0.14661-0.43667-0.054-0.88215-0.4578-1.0016-0.40384-0.11944-0.86028 0.13164-1.0068 0.56834z"/><path transform="translate(114.02 -282.58)" d="m975.47 291.88c-0.0176 0.0513-0.0222 0.10161-0.029 0.1527 0.13694-0.3475 0.50748-0.55504 0.83729-0.45748 0.34176 0.10117 0.51888 0.49115 0.39427 0.86214-0.0846 0.25214-0.28993 0.43266-0.51792 0.4914 0.33601-6e-3 0.65934-0.25578 0.77988-0.61556 0.14661-0.43667-0.054-0.88215-0.4578-1.0016-0.40384-0.11944-0.86028 0.13164-1.0068 0.56834z"/><path transform="translate(114.02 -282.58)" d="m977.25 290.75c-0.0155 0.0451-0.0195 0.0893-0.0255 0.13412 0.12028-0.30523 0.44575-0.48752 0.73544-0.40183 0.30019 0.0889 0.45576 0.43141 0.34631 0.75727-0.0743 0.22147-0.25466 0.38003-0.45492 0.43162 0.29514-5e-3 0.57914-0.22466 0.68501-0.54068 0.12878-0.38355-0.0474-0.77484-0.40211-0.87979-0.35471-0.10491-0.75563 0.11563-0.88436 0.49921z"/><path transform="translate(114.02 -282.58)" d="m978.22 292.22c-0.0155 0.0451-0.0195 0.0893-0.0255 0.13412 0.12028-0.30523 0.44575-0.48752 0.73544-0.40183 0.30019 0.0889 0.45576 0.43141 0.34631 0.75727-0.0743 0.22147-0.25466 0.38003-0.45492 0.43162 0.29514-5e-3 0.57914-0.22466 0.68501-0.54068 0.12878-0.38355-0.0474-0.77484-0.40211-0.87979-0.35471-0.10491-0.75563 0.11563-0.88436 0.49921z"/><path transform="translate(114.02 -282.58)" d="m979.35 294.06c-0.0155 0.0451-0.0195 0.0893-0.0255 0.13412 0.12028-0.30523 0.44575-0.48752 0.73544-0.40183 0.30019 0.0889 0.45576 0.43141 0.34631 0.75727-0.0743 0.22147-0.25466 0.38003-0.45492 0.43162 0.29514-5e-3 0.57914-0.22466 0.68501-0.54068 0.12878-0.38355-0.0474-0.77484-0.40211-0.87979-0.35471-0.10491-0.75563 0.11563-0.88436 0.49921z"/><path transform="translate(114.02 -282.58)" d="m979.31 289.59c-0.0148 0.0393-0.0186 0.0777-0.0243 0.11674 0.11473-0.26567 0.42517-0.42433 0.70149-0.34975 0.28633 0.0774 0.43472 0.37549 0.33032 0.65912-0.0709 0.19276-0.2429 0.33077-0.43392 0.37567 0.28152-4e-3 0.55241-0.19554 0.65339-0.4706 0.12284-0.33383-0.0452-0.6744-0.38355-0.76575-0.33833-0.0913-0.72074 0.10064-0.84353 0.4345z"/><path transform="translate(114.02 -282.58)" d="m979.91 291.25c-0.0148 0.0393-0.0186 0.0777-0.0243 0.11674 0.11473-0.26567 0.42517-0.42433 0.70149-0.34975 0.28633 0.0774 0.43472 0.37549 0.33032 0.65912-0.0709 0.19276-0.2429 0.33077-0.43392 0.37567 0.28152-4e-3 0.55241-0.19554 0.65339-0.4706 0.12284-0.33383-0.0452-0.6744-0.38355-0.76575-0.33833-0.0913-0.72074 0.10064-0.84353 0.4345z"/><path transform="translate(114.02 -282.58)" d="m980.81 292.56c-0.0148 0.0393-0.0186 0.0777-0.0243 0.11674 0.11473-0.26567 0.42517-0.42433 0.70149-0.34975 0.28633 0.0774 0.43472 0.37549 0.33032 0.65912-0.0709 0.19276-0.2429 0.33077-0.43392 0.37567 0.28152-4e-3 0.55241-0.19554 0.65339-0.4706 0.12284-0.33383-0.0452-0.6744-0.38355-0.76575-0.33833-0.0913-0.72074 0.10064-0.84353 0.4345z"/><path transform="translate(114.02 -282.58)" d="m982.2 291.48c-0.0148 0.0393-0.0186 0.0777-0.0243 0.11674 0.11473-0.26567 0.42517-0.42433 0.70149-0.34975 0.28633 0.0774 0.43472 0.37549 0.33032 0.65912-0.0709 0.19276-0.2429 0.33077-0.43392 0.37567 0.28152-4e-3 0.55241-0.19554 0.65339-0.4706 0.12284-0.33383-0.0452-0.6744-0.38355-0.76575-0.33833-0.0913-0.72074 0.10064-0.84353 0.4345z"/><path transform="translate(114.02 -282.58)" d="m981.68 289.83c-0.0148 0.0393-0.0186 0.0777-0.0243 0.11674 0.11473-0.26567 0.42517-0.42433 0.70149-0.34975 0.28633 0.0774 0.43472 0.37549 0.33032 0.65912-0.0709 0.19276-0.2429 0.33077-0.43392 0.37567 0.28152-4e-3 0.55241-0.19554 0.65339-0.4706 0.12284-0.33383-0.0452-0.6744-0.38355-0.76575-0.33833-0.0913-0.72074 0.10064-0.84353 0.4345z"/><path transform="translate(114.02 -282.58)" d="m980.63 288.25c-0.0148 0.0393-0.0186 0.0777-0.0243 0.11674 0.11473-0.26567 0.42517-0.42433 0.70149-0.34975 0.28633 0.0774 0.43472 0.37549 0.33032 0.65912-0.0709 0.19276-0.2429 0.33077-0.43392 0.37567 0.28152-4e-3 0.55241-0.19554 0.65339-0.4706 0.12284-0.33383-0.0452-0.6744-0.38355-0.76575-0.33833-0.0913-0.72074 0.10064-0.84353 0.4345z"/><path transform="translate(114.02 -282.58)" d="m982.24 286.76c-0.0148 0.0393-0.0186 0.0777-0.0243 0.11674 0.11473-0.26567 0.42517-0.42433 0.70149-0.34975 0.28633 0.0774 0.43472 0.37549 0.33032 0.65912-0.0709 0.19276-0.2429 0.33077-0.43392 0.37567 0.28152-4e-3 0.55241-0.19554 0.65339-0.4706 0.12284-0.33383-0.0452-0.6744-0.38355-0.76575-0.33833-0.0913-0.72074 0.10064-0.84353 0.4345z"/><path transform="translate(114.02 -282.58)" d="m983.43 289.35c-0.0148 0.0393-0.0186 0.0777-0.0243 0.11674 0.11473-0.26567 0.42517-0.42433 0.70149-0.34975 0.28633 0.0774 0.43472 0.37549 0.33032 0.65912-0.0709 0.19276-0.2429 0.33077-0.43392 0.37567 0.28152-4e-3 0.55241-0.19554 0.65339-0.4706 0.12284-0.33383-0.0452-0.6744-0.38355-0.76575-0.33833-0.0913-0.72074 0.10064-0.84353 0.4345z"/><path transform="translate(114.02 -282.58)" d="m982.9 287.98c-0.0148 0.0393-0.0186 0.0777-0.0243 0.11674 0.11473-0.26567 0.42517-0.42433 0.70149-0.34975 0.28633 0.0774 0.43472 0.37549 0.33032 0.65912-0.0709 0.19276-0.2429 0.33077-0.43392 0.37567 0.28152-4e-3 0.55241-0.19554 0.65339-0.4706 0.12284-0.33383-0.0452-0.6744-0.38355-0.76575-0.33833-0.0913-0.72074 0.10064-0.84353 0.4345z"/><path transform="translate(114.02 -282.58)" d="m984.36 287.7c3e-3 0.0334 0.0133 0.0624 0.0225 0.0925-8e-3 -0.231 0.16106-0.45198 0.38597-0.49302 0.2331-0.0424 0.44243 0.12166 0.46446 0.36208 0.015 0.16337-0.0617 0.32195-0.18407 0.41989 0.20169-0.0995 0.33136-0.33062 0.3098-0.56369-0.026-0.28295-0.26404-0.47094-0.53945-0.42072-0.27538 0.0503-0.48535 0.31994-0.45934 0.6029z"/><path transform="translate(114.02 -282.58)" d="m983.14 285.61c3e-3 0.0334 0.0133 0.0624 0.0225 0.0925-8e-3 -0.231 0.16106-0.45198 0.38597-0.49302 0.2331-0.0424 0.44243 0.12166 0.46446 0.36208 0.015 0.16337-0.0617 0.32195-0.18407 0.41989 0.20169-0.0995 0.33136-0.33062 0.3098-0.56369-0.026-0.28295-0.26404-0.47094-0.53945-0.42072-0.27538 0.0503-0.48535 0.31994-0.45934 0.6029z"/><path transform="translate(114.02 -282.58)" d="m984.32 285.51c3e-3 0.0334 0.0133 0.0624 0.0225 0.0925-8e-3 -0.231 0.16106-0.45198 0.38597-0.49302 0.2331-0.0424 0.44243 0.12166 0.46446 0.36208 0.015 0.16337-0.0617 0.32195-0.18407 0.41989 0.20169-0.0995 0.33136-0.33062 0.3098-0.56369-0.026-0.28295-0.26404-0.47094-0.53945-0.42072-0.27538 0.0503-0.48535 0.31994-0.45934 0.6029z"/><path transform="translate(114.02 -282.58)" d="m985.04 286.2c3e-3 0.0334 0.0133 0.0624 0.0225 0.0925-8e-3 -0.231 0.16106-0.45198 0.38597-0.49302 0.2331-0.0424 0.44243 0.12166 0.46446 0.36208 0.015 0.16337-0.0617 0.32195-0.18407 0.41989 0.20169-0.0995 0.33136-0.33062 0.3098-0.56369-0.026-0.28295-0.26404-0.47094-0.53945-0.42072-0.27538 0.0503-0.48535 0.31994-0.45934 0.6029z"/><path transform="translate(114.02 -282.58)" d="m983.36 283.92c3e-3 0.0334 0.0133 0.0624 0.0225 0.0925-8e-3 -0.231 0.16106-0.45198 0.38597-0.49302 0.2331-0.0424 0.44243 0.12166 0.46446 0.36208 0.015 0.16337-0.0617 0.32195-0.18407 0.41989 0.20169-0.0995 0.33136-0.33062 0.3098-0.56369-0.026-0.28295-0.26404-0.47094-0.53945-0.42072-0.27538 0.0503-0.48535 0.31994-0.45934 0.6029z"/><path transform="translate(114.02 -282.58)" d="m984.66 284.27c0.0121 0.0313 0.0299 0.0563 0.0471 0.0828-0.0712-0.21989 0.0306-0.47885 0.2355-0.58016 0.21245-0.10487 0.45883-5e-3 0.54613 0.22038 0.0593 0.15294 0.0292 0.3265-0.0615 0.45432 0.16654-0.15113 0.22765-0.409 0.14282-0.62715-0.10281-0.26489-0.38338-0.38017-0.63435-0.25614-0.25093 0.1241-0.37865 0.44109-0.27582 0.70598z"/><path transform="translate(114.02 -282.58)" d="m984.25 282.64c0.0121 0.0313 0.0299 0.0563 0.0471 0.0828-0.0712-0.21989 0.0306-0.47885 0.2355-0.58016 0.21245-0.10487 0.45883-5e-3 0.54613 0.22038 0.0593 0.15294 0.0292 0.3265-0.0615 0.45432 0.16654-0.15113 0.22765-0.409 0.14282-0.62715-0.10281-0.26489-0.38338-0.38017-0.63435-0.25614-0.25093 0.1241-0.37865 0.44109-0.27582 0.70598z"/></g><g fill="#efbb33"><path transform="rotate(4.0694 3548.7 4597.4)" d="m751.86 210.19c2.319 0.84756 2.7271 4.3231-1.02 4.3354 2.4624-0.97779 2.1086-3.1433 1.02-4.3354z"/><path transform="rotate(4.0694 3548.7 4597.4)" d="m753.86 207.2c2.4462-0.34487 4.4486 2.9531 1.149 4.9056 1.7101-2.2622 0.3746-4.2655-1.149-4.9056z"/><path transform="rotate(4.0694 3548.7 4597.4)" d="m756.57 213.14c2.4462-0.34487 4.4486 2.9531 1.149 4.9056 1.7101-2.2622 0.3746-4.2655-1.149-4.9056z" opacity=".58407"/><path transform="rotate(4.0694 3548.7 4597.4)" d="m747.5 205.37c2.2222 1.079 2.0433 4.9331-1.7843 4.7118 2.6815-0.92275 2.6913-3.3304 1.7843-4.7118z"/><path transform="rotate(4.0694 3548.7 4597.4)" d="m746.05 209.85c2.2222 1.079 2.0433 4.9331-1.7843 4.7118 2.6815-0.92275 2.6913-3.3304 1.7843-4.7118z"/></g><g><path transform="rotate(4.0694 3548.7 4597.4)" d="m736.12 197.99c0.53885 2.4109-2.5889 4.6699-4.7983 1.5366 2.3914 1.5242 4.2818 0.0332 4.7983-1.5366z" fill="url(#linearGradient5993-9)"/><path transform="rotate(4.0694 3548.7 4597.4)" d="m738.12 201.8c0.53885 2.4109-2.5889 4.6699-4.7983 1.5366 2.3914 1.5242 4.2818 0.0332 4.7983-1.5366z" fill="#efbb33" opacity=".69912"/><path transform="rotate(4.0694 3548.7 4597.4)" d="m744.48 203.29c1.0932 1.8862-0.71163 4.7185-3.3077 2.7094 2.2882 0.59145 3.344-1.2269 3.3077-2.7094z" fill="#efbb33"/></g><g transform="rotate(2.5823 7383.3 2609.2)"><g transform="matrix(1.0534 -.21006 .19557 .98069 -247.39 188.64)"><path d="m1059.3 337.46c-0.8279 0.1449-1.264 0.95002-1.264 1.7978 0 1.037 0.8174 1.8584 1.7442 1.8584s1.8162-0.88214 1.8162-1.9192c0-0.72593-0.3709-1.4156-0.9649-1.6065 0.3504 0.26486 0.4386 0.7045 0.4386 1.2132 0 0.81397-0.5341 1.3362-1.2616 1.3362s-1.2223-0.5222-1.2223-1.3362c0-0.61048 0.241-1.12 0.7138-1.3438z" fill="#ffff97"/><path d="m1059.2 337.46c-0.8726 0.26938-1.5013 1.0778-1.5013 2.0568 0 1.1975 0.9364 2.165 2.1089 2.165 1.1726 0 2.1089-0.96756 2.1089-2.165 0-0.83822-0.4621-1.5516-1.1438-1.9124 0.4433 0.30582 0.7506 0.81984 0.7506 1.4073 0 0.93987-0.7596 1.6959-1.6799 1.6959-0.9204 0-1.6443-0.75606-1.6443-1.6959 0-0.70491 0.4028-1.2932 1.0009-1.5516z" fill="#efbb33"/></g><g transform="matrix(1.0534 -.21006 .19557 .98069 -242.39 187.29)"><path d="m1059.3 337.46c-0.8279 0.1449-1.264 0.95002-1.264 1.7978 0 1.037 0.8174 1.8584 1.7442 1.8584s1.8162-0.88214 1.8162-1.9192c0-0.72593-0.3709-1.4156-0.9649-1.6065 0.3504 0.26486 0.4386 0.7045 0.4386 1.2132 0 0.81397-0.5341 1.3362-1.2616 1.3362s-1.2223-0.5222-1.2223-1.3362c0-0.61048 0.241-1.12 0.7138-1.3438z" fill="#ffff97"/><path d="m1059.2 337.46c-0.8726 0.26938-1.5013 1.0778-1.5013 2.0568 0 1.1975 0.9364 2.165 2.1089 2.165 1.1726 0 2.1089-0.96756 2.1089-2.165 0-0.83822-0.4621-1.5516-1.1438-1.9124 0.4433 0.30582 0.7506 0.81984 0.7506 1.4073 0 0.93987-0.7596 1.6959-1.6799 1.6959-0.9204 0-1.6443-0.75606-1.6443-1.6959 0-0.70491 0.4028-1.2932 1.0009-1.5516z" fill="#efbb33"/></g><g transform="matrix(.95782 -.48606 .45253 .89175 -223.74 507.81)"><path d="m1059.3 337.46c-0.8279 0.1449-1.264 0.95002-1.264 1.7978 0 1.037 0.8174 1.8584 1.7442 1.8584s1.8162-0.88214 1.8162-1.9192c0-0.72593-0.3709-1.4156-0.9649-1.6065 0.3504 0.26486 0.4386 0.7045 0.4386 1.2132 0 0.81397-0.5341 1.3362-1.2616 1.3362s-1.2223-0.5222-1.2223-1.3362c0-0.61048 0.241-1.12 0.7138-1.3438z" fill="#ffff97"/><path d="m1059.2 337.46c-0.8726 0.26938-1.5013 1.0778-1.5013 2.0568 0 1.1975 0.9364 2.165 2.1089 2.165 1.1726 0 2.1089-0.96756 2.1089-2.165 0-0.83822-0.4621-1.5516-1.1438-1.9124 0.4433 0.30582 0.7506 0.81984 0.7506 1.4073 0 0.93987-0.7596 1.6959-1.6799 1.6959-0.9204 0-1.6443-0.75606-1.6443-1.6959 0-0.70491 0.4028-1.2932 1.0009-1.5516z" fill="#efbb33"/></g><g transform="matrix(1.0601 -.1731 .16116 .98693 -231.81 149.04)"><path d="m1059.3 337.46c-0.8279 0.1449-1.264 0.95002-1.264 1.7978 0 1.037 0.8174 1.8584 1.7442 1.8584s1.8162-0.88214 1.8162-1.9192c0-0.72593-0.3709-1.4156-0.9649-1.6065 0.3504 0.26486 0.4386 0.7045 0.4386 1.2132 0 0.81397-0.5341 1.3362-1.2616 1.3362s-1.2223-0.5222-1.2223-1.3362c0-0.61048 0.241-1.12 0.7138-1.3438z" fill="#ffff97"/><path d="m1059.2 337.46c-0.8726 0.26938-1.5013 1.0778-1.5013 2.0568 0 1.1975 0.9364 2.165 2.1089 2.165 1.1726 0 2.1089-0.96756 2.1089-2.165 0-0.83822-0.4621-1.5516-1.1438-1.9124 0.4433 0.30582 0.7506 0.81984 0.7506 1.4073 0 0.93987-0.7596 1.6959-1.6799 1.6959-0.9204 0-1.6443-0.75606-1.6443-1.6959 0-0.70491 0.4028-1.2932 1.0009-1.5516z" fill="#efbb33"/></g><g transform="matrix(.98657 -.42468 .39539 .91851 -238.26 440.64)"><path d="m1059.3 337.46c-0.8279 0.1449-1.264 0.95002-1.264 1.7978 0 1.037 0.8174 1.8584 1.7442 1.8584s1.8162-0.88214 1.8162-1.9192c0-0.72593-0.3709-1.4156-0.9649-1.6065 0.3504 0.26486 0.4386 0.7045 0.4386 1.2132 0 0.81397-0.5341 1.3362-1.2616 1.3362s-1.2223-0.5222-1.2223-1.3362c0-0.61048 0.241-1.12 0.7138-1.3438z" fill="#ffff97"/><path d="m1059.2 337.46c-0.8726 0.26938-1.5013 1.0778-1.5013 2.0568 0 1.1975 0.9364 2.165 2.1089 2.165 1.1726 0 2.1089-0.96756 2.1089-2.165 0-0.83822-0.4621-1.5516-1.1438-1.9124 0.4433 0.30582 0.7506 0.81984 0.7506 1.4073 0 0.93987-0.7596 1.6959-1.6799 1.6959-0.9204 0-1.6443-0.75606-1.6443-1.6959 0-0.70491 0.4028-1.2932 1.0009-1.5516z" fill="#efbb33"/></g><g transform="matrix(.90438 -.3893 .36245 .84199 -144.63 430.97)"><path d="m1059.3 337.46c-0.8279 0.1449-1.264 0.95002-1.264 1.7978 0 1.037 0.8174 1.8584 1.7442 1.8584s1.8162-0.88214 1.8162-1.9192c0-0.72593-0.3709-1.4156-0.9649-1.6065 0.3504 0.26486 0.4386 0.7045 0.4386 1.2132 0 0.81397-0.5341 1.3362-1.2616 1.3362s-1.2223-0.5222-1.2223-1.3362c0-0.61048 0.241-1.12 0.7138-1.3438z" fill="#ffff97"/><path d="m1059.2 337.46c-0.8726 0.26938-1.5013 1.0778-1.5013 2.0568 0 1.1975 0.9364 2.165 2.1089 2.165 1.1726 0 2.1089-0.96756 2.1089-2.165 0-0.83822-0.4621-1.5516-1.1438-1.9124 0.4433 0.30582 0.7506 0.81984 0.7506 1.4073 0 0.93987-0.7596 1.6959-1.6799 1.6959-0.9204 0-1.6443-0.75606-1.6443-1.6959 0-0.70491 0.4028-1.2932 1.0009-1.5516z" fill="#efbb33"/></g><g transform="matrix(.90438 -.3893 .36245 .84199 -141.75 436.57)"><path d="m1059.3 337.46c-0.8279 0.1449-1.264 0.95002-1.264 1.7978 0 1.037 0.8174 1.8584 1.7442 1.8584s1.8162-0.88214 1.8162-1.9192c0-0.72593-0.3709-1.4156-0.9649-1.6065 0.3504 0.26486 0.4386 0.7045 0.4386 1.2132 0 0.81397-0.5341 1.3362-1.2616 1.3362s-1.2223-0.5222-1.2223-1.3362c0-0.61048 0.241-1.12 0.7138-1.3438z" fill="#ffff97"/><path d="m1059.2 337.46c-0.8726 0.26938-1.5013 1.0778-1.5013 2.0568 0 1.1975 0.9364 2.165 2.1089 2.165 1.1726 0 2.1089-0.96756 2.1089-2.165 0-0.83822-0.4621-1.5516-1.1438-1.9124 0.4433 0.30582 0.7506 0.81984 0.7506 1.4073 0 0.93987-0.7596 1.6959-1.6799 1.6959-0.9204 0-1.6443-0.75606-1.6443-1.6959 0-0.70491 0.4028-1.2932 1.0009-1.5516z" fill="#efbb33"/></g><g transform="matrix(.84916 -.49838 .464 .79059 -113.12 567.36)"><path d="m1059.3 337.46c-0.8279 0.1449-1.264 0.95002-1.264 1.7978 0 1.037 0.8174 1.8584 1.7442 1.8584s1.8162-0.88214 1.8162-1.9192c0-0.72593-0.3709-1.4156-0.9649-1.6065 0.3504 0.26486 0.4386 0.7045 0.4386 1.2132 0 0.81397-0.5341 1.3362-1.2616 1.3362s-1.2223-0.5222-1.2223-1.3362c0-0.61048 0.241-1.12 0.7138-1.3438z" fill="#ffff97"/><path d="m1059.2 337.46c-0.8726 0.26938-1.5013 1.0778-1.5013 2.0568 0 1.1975 0.9364 2.165 2.1089 2.165 1.1726 0 2.1089-0.96756 2.1089-2.165 0-0.83822-0.4621-1.5516-1.1438-1.9124 0.4433 0.30582 0.7506 0.81984 0.7506 1.4073 0 0.93987-0.7596 1.6959-1.6799 1.6959-0.9204 0-1.6443-0.75606-1.6443-1.6959 0-0.70491 0.4028-1.2932 1.0009-1.5516z" fill="#efbb33"/></g><g transform="matrix(.84916 -.49838 .464 .79059 -108.62 564.96)"><path d="m1059.3 337.46c-0.8279 0.1449-1.264 0.95002-1.264 1.7978 0 1.037 0.8174 1.8584 1.7442 1.8584s1.8162-0.88214 1.8162-1.9192c0-0.72593-0.3709-1.4156-0.9649-1.6065 0.3504 0.26486 0.4386 0.7045 0.4386 1.2132 0 0.81397-0.5341 1.3362-1.2616 1.3362s-1.2223-0.5222-1.2223-1.3362c0-0.61048 0.241-1.12 0.7138-1.3438z" fill="#ffff97"/><path d="m1059.2 337.46c-0.8726 0.26938-1.5013 1.0778-1.5013 2.0568 0 1.1975 0.9364 2.165 2.1089 2.165 1.1726 0 2.1089-0.96756 2.1089-2.165 0-0.83822-0.4621-1.5516-1.1438-1.9124 0.4433 0.30582 0.7506 0.81984 0.7506 1.4073 0 0.93987-0.7596 1.6959-1.6799 1.6959-0.9204 0-1.6443-0.75606-1.6443-1.6959 0-0.70491 0.4028-1.2932 1.0009-1.5516z" fill="#efbb33"/></g><g transform="matrix(.50613 -.84456 .7863 .47122 141.01 1048.8)"><path d="m1059.3 337.46c-0.8279 0.1449-1.264 0.95002-1.264 1.7978 0 1.037 0.8174 1.8584 1.7442 1.8584s1.8162-0.88214 1.8162-1.9192c0-0.72593-0.3709-1.4156-0.9649-1.6065 0.3504 0.26486 0.4386 0.7045 0.4386 1.2132 0 0.81397-0.5341 1.3362-1.2616 1.3362s-1.2223-0.5222-1.2223-1.3362c0-0.61048 0.241-1.12 0.7138-1.3438z" fill="#ffff97"/><path d="m1059.2 337.46c-0.8726 0.26938-1.5013 1.0778-1.5013 2.0568 0 1.1975 0.9364 2.165 2.1089 2.165 1.1726 0 2.1089-0.96756 2.1089-2.165 0-0.83822-0.4621-1.5516-1.1438-1.9124 0.4433 0.30582 0.7506 0.81984 0.7506 1.4073 0 0.93987-0.7596 1.6959-1.6799 1.6959-0.9204 0-1.6443-0.75606-1.6443-1.6959 0-0.70491 0.4028-1.2932 1.0009-1.5516z" fill="#efbb33"/></g><g transform="matrix(.50613 -.84456 .7863 .47122 145.48 1045.9)"><path d="m1059.3 337.46c-0.8279 0.1449-1.264 0.95002-1.264 1.7978 0 1.037 0.8174 1.8584 1.7442 1.8584s1.8162-0.88214 1.8162-1.9192c0-0.72593-0.3709-1.4156-0.9649-1.6065 0.3504 0.26486 0.4386 0.7045 0.4386 1.2132 0 0.81397-0.5341 1.3362-1.2616 1.3362s-1.2223-0.5222-1.2223-1.3362c0-0.61048 0.241-1.12 0.7138-1.3438z" fill="#ffff97"/><path d="m1059.2 337.46c-0.8726 0.26938-1.5013 1.0778-1.5013 2.0568 0 1.1975 0.9364 2.165 2.1089 2.165 1.1726 0 2.1089-0.96756 2.1089-2.165 0-0.83822-0.4621-1.5516-1.1438-1.9124 0.4433 0.30582 0.7506 0.81984 0.7506 1.4073 0 0.93987-0.7596 1.6959-1.6799 1.6959-0.9204 0-1.6443-0.75606-1.6443-1.6959 0-0.70491 0.4028-1.2932 1.0009-1.5516z" fill="#efbb33"/></g><g transform="matrix(.50613 -.84456 .7863 .47122 150.26 1043.2)"><path d="m1059.3 337.46c-0.8279 0.1449-1.264 0.95002-1.264 1.7978 0 1.037 0.8174 1.8584 1.7442 1.8584s1.8162-0.88214 1.8162-1.9192c0-0.72593-0.3709-1.4156-0.9649-1.6065 0.3504 0.26486 0.4386 0.7045 0.4386 1.2132 0 0.81397-0.5341 1.3362-1.2616 1.3362s-1.2223-0.5222-1.2223-1.3362c0-0.61048 0.241-1.12 0.7138-1.3438z" fill="#ffff97"/><path d="m1059.2 337.46c-0.8726 0.26938-1.5013 1.0778-1.5013 2.0568 0 1.1975 0.9364 2.165 2.1089 2.165 1.1726 0 2.1089-0.96756 2.1089-2.165 0-0.83822-0.4621-1.5516-1.1438-1.9124 0.4433 0.30582 0.7506 0.81984 0.7506 1.4073 0 0.93987-0.7596 1.6959-1.6799 1.6959-0.9204 0-1.6443-0.75606-1.6443-1.6959 0-0.70491 0.4028-1.2932 1.0009-1.5516z" fill="#efbb33"/></g><g transform="matrix(-.048056 -.98344 .9156 -.044741 692.68 1372.5)"><path d="m1059.3 337.46c-0.8279 0.1449-1.264 0.95002-1.264 1.7978 0 1.037 0.8174 1.8584 1.7442 1.8584s1.8162-0.88214 1.8162-1.9192c0-0.72593-0.3709-1.4156-0.9649-1.6065 0.3504 0.26486 0.4386 0.7045 0.4386 1.2132 0 0.81397-0.5341 1.3362-1.2616 1.3362s-1.2223-0.5222-1.2223-1.3362c0-0.61048 0.241-1.12 0.7138-1.3438z" fill="#ffff97"/><path d="m1059.2 337.46c-0.8726 0.26938-1.5013 1.0778-1.5013 2.0568 0 1.1975 0.9364 2.165 2.1089 2.165 1.1726 0 2.1089-0.96756 2.1089-2.165 0-0.83822-0.4621-1.5516-1.1438-1.9124 0.4433 0.30582 0.7506 0.81984 0.7506 1.4073 0 0.93987-0.7596 1.6959-1.6799 1.6959-0.9204 0-1.6443-0.75606-1.6443-1.6959 0-0.70491 0.4028-1.2932 1.0009-1.5516z" fill="#efbb33"/></g><g transform="matrix(-.048056 -.98344 .9156 -.044741 697.96 1371.9)"><path d="m1059.3 337.46c-0.8279 0.1449-1.264 0.95002-1.264 1.7978 0 1.037 0.8174 1.8584 1.7442 1.8584s1.8162-0.88214 1.8162-1.9192c0-0.72593-0.3709-1.4156-0.9649-1.6065 0.3504 0.26486 0.4386 0.7045 0.4386 1.2132 0 0.81397-0.5341 1.3362-1.2616 1.3362s-1.2223-0.5222-1.2223-1.3362c0-0.61048 0.241-1.12 0.7138-1.3438z" fill="#ffff97"/><path d="m1059.2 337.46c-0.8726 0.26938-1.5013 1.0778-1.5013 2.0568 0 1.1975 0.9364 2.165 2.1089 2.165 1.1726 0 2.1089-0.96756 2.1089-2.165 0-0.83822-0.4621-1.5516-1.1438-1.9124 0.4433 0.30582 0.7506 0.81984 0.7506 1.4073 0 0.93987-0.7596 1.6959-1.6799 1.6959-0.9204 0-1.6443-0.75606-1.6443-1.6959 0-0.70491 0.4028-1.2932 1.0009-1.5516z" fill="#efbb33"/></g><g transform="matrix(-.048056 -.98344 .9156 -.044741 699.56 1366.5)"><path d="m1059.3 337.46c-0.8279 0.1449-1.264 0.95002-1.264 1.7978 0 1.037 0.8174 1.8584 1.7442 1.8584s1.8162-0.88214 1.8162-1.9192c0-0.72593-0.3709-1.4156-0.9649-1.6065 0.3504 0.26486 0.4386 0.7045 0.4386 1.2132 0 0.81397-0.5341 1.3362-1.2616 1.3362s-1.2223-0.5222-1.2223-1.3362c0-0.61048 0.241-1.12 0.7138-1.3438z" fill="#ffff97"/><path d="m1059.2 337.46c-0.8726 0.26938-1.5013 1.0778-1.5013 2.0568 0 1.1975 0.9364 2.165 2.1089 2.165 1.1726 0 2.1089-0.96756 2.1089-2.165 0-0.83822-0.4621-1.5516-1.1438-1.9124 0.4433 0.30582 0.7506 0.81984 0.7506 1.4073 0 0.93987-0.7596 1.6959-1.6799 1.6959-0.9204 0-1.6443-0.75606-1.6443-1.6959 0-0.70491 0.4028-1.2932 1.0009-1.5516z" fill="#efbb33"/></g><g transform="matrix(-.048056 -.98344 .9156 -.044741 704.62 1369.6)"><path d="m1059.3 337.46c-0.8279 0.1449-1.264 0.95002-1.264 1.7978 0 1.037 0.8174 1.8584 1.7442 1.8584s1.8162-0.88214 1.8162-1.9192c0-0.72593-0.3709-1.4156-0.9649-1.6065 0.3504 0.26486 0.4386 0.7045 0.4386 1.2132 0 0.81397-0.5341 1.3362-1.2616 1.3362s-1.2223-0.5222-1.2223-1.3362c0-0.61048 0.241-1.12 0.7138-1.3438z" fill="#ffff97"/><path d="m1059.2 337.46c-0.8726 0.26938-1.5013 1.0778-1.5013 2.0568 0 1.1975 0.9364 2.165 2.1089 2.165 1.1726 0 2.1089-0.96756 2.1089-2.165 0-0.83822-0.4621-1.5516-1.1438-1.9124 0.4433 0.30582 0.7506 0.81984 0.7506 1.4073 0 0.93987-0.7596 1.6959-1.6799 1.6959-0.9204 0-1.6443-0.75606-1.6443-1.6959 0-0.70491 0.4028-1.2932 1.0009-1.5516z" fill="#efbb33"/></g><g transform="matrix(-.21309 -.80882 .75302 -.19839 936.95 1232.4)"><path d="m1059.3 337.46c-0.8279 0.1449-1.264 0.95002-1.264 1.7978 0 1.037 0.8174 1.8584 1.7442 1.8584s1.8162-0.88214 1.8162-1.9192c0-0.72593-0.3709-1.4156-0.9649-1.6065 0.3504 0.26486 0.4386 0.7045 0.4386 1.2132 0 0.81397-0.5341 1.3362-1.2616 1.3362s-1.2223-0.5222-1.2223-1.3362c0-0.61048 0.241-1.12 0.7138-1.3438z" fill="#ffff97"/><path d="m1059.2 337.46c-0.8726 0.26938-1.5013 1.0778-1.5013 2.0568 0 1.1975 0.9364 2.165 2.1089 2.165 1.1726 0 2.1089-0.96756 2.1089-2.165 0-0.83822-0.4621-1.5516-1.1438-1.9124 0.4433 0.30582 0.7506 0.81984 0.7506 1.4073 0 0.93987-0.7596 1.6959-1.6799 1.6959-0.9204 0-1.6443-0.75606-1.6443-1.6959 0-0.70491 0.4028-1.2932 1.0009-1.5516z" fill="#efbb33"/></g><g transform="matrix(-.47493 -.6885 .64101 -.44217 1257.4 1187.1)"><path d="m1059.3 337.46c-0.8279 0.1449-1.264 0.95002-1.264 1.7978 0 1.037 0.8174 1.8584 1.7442 1.8584s1.8162-0.88214 1.8162-1.9192c0-0.72593-0.3709-1.4156-0.9649-1.6065 0.3504 0.26486 0.4386 0.7045 0.4386 1.2132 0 0.81397-0.5341 1.3362-1.2616 1.3362s-1.2223-0.5222-1.2223-1.3362c0-0.61048 0.241-1.12 0.7138-1.3438z" fill="#ffff97"/><path d="m1059.2 337.46c-0.8726 0.26938-1.5013 1.0778-1.5013 2.0568 0 1.1975 0.9364 2.165 2.1089 2.165 1.1726 0 2.1089-0.96756 2.1089-2.165 0-0.83822-0.4621-1.5516-1.1438-1.9124 0.4433 0.30582 0.7506 0.81984 0.7506 1.4073 0 0.93987-0.7596 1.6959-1.6799 1.6959-0.9204 0-1.6443-0.75606-1.6443-1.6959 0-0.70491 0.4028-1.2932 1.0009-1.5516z" fill="#efbb33"/></g></g><g transform="translate(291.1 -309.44)"><path transform="translate(16.263 325.27)" d="m715.5-29.446 10.253 0.44194 0.17678-3.0936h-1.0607l-1.0607 1.5026-6.1872-0.08839-1.7678-1.8562-1.0607-0.08839z" fill="#f6d251"/><path d="m735.92 294.92-0.0884-22.989 1.6794-2.2716 0.53033 25.272z" fill="url(#linearGradient5995-2)"/><g fill="none" stroke="#e7ad46"><path transform="translate(-284.38 -23.604)" d="m1018.5 321.54c2.0582 0.505 2.6642 0.59534 3.607 0.27557" stroke-width=".35"/><path transform="translate(16.263 325.27)" d="m723.19-28.739c0.54264 0.29619 0.86068 0.99102 0.35355 1.7678-0.76162-0.06804-1.4902-0.36522-2.2904 0.0054" stroke-width=".375"/></g><g transform="translate(-.21875 2.5156)" fill="none" stroke="#e7ad46"><path transform="translate(-284.38 -23.604)" d="m1018.5 321.54c2.0582 0.505 2.6642 0.59534 3.607 0.27557" stroke-width=".35"/><path transform="translate(16.263 325.27)" d="m723.19-28.739c0.54264 0.29619 0.86068 0.99102 0.35355 1.7678-0.76162-0.06804-1.4902-0.36522-2.2904 0.0054" stroke-width=".375"/></g><g transform="translate(-.32812 4.8594)" fill="none" stroke="#e7ad46"><path transform="translate(-284.38 -23.604)" d="m1018.5 321.54c2.0582 0.505 2.6642 0.59534 3.607 0.27557" stroke-width=".35"/><path transform="translate(16.263 325.27)" d="m723.19-28.739c0.54264 0.29619 0.86068 0.99102 0.35355 1.7678-0.76162-0.06804-1.4902-0.36522-2.2904 0.0054" stroke-width=".375"/></g></g><g transform="translate(327.75 -382.56)" fill="none" stroke="#e7ad46"><path d="m717.44 345.28c1.1087-0.76221 1.9537-0.82104 2.5625-0.25 1.1279 0.3451 2.0591-0.13764 2.6875-0.875 1.0202-1.4508 3.0125-1.4693 4.9375-0.25l0.5625 0.09375" stroke-width=".4"/><path d="m725.12 347.81c1.2546 1.5417 1.5255 3.4583-0.125 5.1875" stroke-width=".5"/><path d="m728.69 340.19c0.0468 0.42397-0.18825 0.58557 0.6875 0.84375 1.7986-0.375 3.3663 0.40851 4 1.5312 0.42523 0.38473 0.80321 0.48591 1.0625-0.125" stroke-width=".4"/><path d="m729.06 341c-0.33123 2.6748 3.8828 2.4217 4.6875 1.9375" stroke-width=".4"/><g stroke-width=".3"><path d="m729.44 354.81c-0.13015-2.1638-0.39515-4.4501 1.25-5"/><path d="m731.38 353.44c-0.13015-2.1638-0.39515-4.4501 1.25-5"/><path d="m733.06 352.38c-0.13015-2.1638-0.39515-4.4501 1.25-5"/><path d="m734.5 350.88c-0.13015-2.1638-0.39515-4.4501 1.25-5"/></g><path d="m739.88 340.44c4.5721-0.1859 4.5412 4.8965 1.7188 5.7812-1.9531-0.0227-2.5158 1.8236-3.9375 1.6875" stroke-width=".4"/><path d="m738.75 340.62c-0.57811 0.47017-0.28818 0.86142 0.0312 1.25 3.9727 1.1167 2.0504 3.478 0.875 3.4062-0.68383-0.17914-1.0657 0.0444-1.25 0.53125-7e-3 0.68689-0.37884 0.90578-0.96875 0.84375" stroke-width=".3"/></g></g><g fill="#f4d32c"><path transform="matrix(2.8513 .34514 -.34513 2.8514 -782.13 741.69)" d="m431.27-181.99-4.886-2.1076-4.1477 3.3333 0.49458-5.2981-4.4519-2.9147 5.1917-1.1668 1.3963-5.1347 2.714 4.577 5.3149-0.25874-3.5143 3.9956z"/><path transform="matrix(2.7159 -.93447 .93444 2.716 -365.14 1467.8)" d="m431.27-181.99-4.886-2.1076-4.1477 3.3333 0.49458-5.2981-4.4519-2.9147 5.1917-1.1668 1.3963-5.1347 2.714 4.577 5.3149-0.25874-3.5143 3.9956z"/><path transform="matrix(-2.7159 -.93447 -.93444 2.716 1360.2 1467.8)" d="m431.27-181.99-4.886-2.1076-4.1477 3.3333 0.49458-5.2981-4.4519-2.9147 5.1917-1.1668 1.3963-5.1347 2.714 4.577 5.3149-0.25874-3.5143 3.9956z"/></g><path d="m459.21 429.64c-1.6098-2.0448-2.5143-2.403-4.898-3.8462 0 0 0.32057 3.8313 0.98157 4.913 0.95015 1.3696 0.21721 3.5155 1.5731 5.0868 0.92827 1.5024 0.8625 3.4758 1.903 4.8847 1.7753 1.3876 4.7126 1.785 6.9647 1.5806-1.3721-1.1556-2.2791-1.8412-2.8082-2.9037-1.6998-1.2708-1.342-3.4601-1.7503-5.2874-0.1971-1.075-1.746-3.3572-1.9659-4.4276z" fill="#f6d251"/><path d="m517.91 974.32-20.583-13.336-20.614 13.287 6.2655-23.786-18.95-15.589 24.455-1.3646 8.9034-22.921 8.8488 22.944 24.452 1.4228-18.987 15.544z" color="#000000" fill="#fff" stroke="#fff" stroke-width="1.4476"/><g transform="matrix(1.4868 0 0 1.4844 -53.165 -224.99)" fill="#fff"><path d="m189.01 715.62-3.7558-2.8041c1.0808-1.5434 1.7189-3.0314 1.9144-4.4641 0.19555-1.4327-0.095-2.9914-0.87155-4.676-0.77656-1.6846-1.9581-3.2347-3.5446-4.6503-1.4088-1.257-2.8395-2.1575-4.292-2.7013-1.4525-0.54377-2.7678-0.68576-3.9457-0.42596-1.1779 0.25982-2.1519 0.82125-2.922 1.6843-0.78139 0.87576-1.2099 1.867-1.2854 2.9736s0.27234 2.403 1.0436 3.8891c0.48838 0.96009 1.7398 2.8917 3.7543 5.7949 2.0146 2.9032 3.2924 5.0863 3.8334 6.5494 0.70982 1.8872 0.93004 3.6396 0.66068 5.2572-0.26932 1.6176-0.9759 3.0674-2.1197 4.3493-1.257 1.4088-2.8318 2.3689-4.7243 2.8802-1.8924 0.51129-3.8896 0.39909-5.9917-0.33661-2.102-0.73573-4.0922-1.9416-5.9706-3.6177-2.0688-1.846-3.596-3.8071-4.5816-5.8834-0.98555-2.0763-1.326-4.1411-1.0212-6.1945 0.30482-2.0534 1.1559-3.927 2.5533-5.6209l3.7789 2.8931c-1.3838 1.9341-1.9287 3.8415-1.635 5.7222 0.29383 1.8807 1.5132 3.778 3.6581 5.692 2.2338 1.9932 4.2268 3.0363 5.979 3.1293s3.1436-0.43797 4.1741-1.5929c0.89469-1.0027 1.2691-2.1504 1.1232-3.4432-0.13316-1.2815-1.3976-3.6009-3.7934-6.9583s-3.9256-5.7882-4.5895-7.2925c-0.95638-2.1984-1.3092-4.2174-1.0586-6.0568 0.25072-1.8394 1.0442-3.508 2.3806-5.0057 1.325-1.485 2.9988-2.5049 5.0213-3.0597 2.0225-0.55484 4.1558-0.48653 6.3998 0.20494 2.244 0.69151 4.3624 1.9262 6.355 3.7042 2.5257 2.2537 4.3137 4.5102 5.3639 6.7695 1.0502 2.2594 1.4012 4.5615 1.0527 6.9065-0.34841 2.345-1.3296 4.473-2.9436 6.384z"/><path d="m172.74 685.01-37.642 13.731-3.502-4.0216 18.155-36.11 3.7031 4.2525-5.6781 10.73 10.272 11.795 11.241-4.3418zm-18.671 1.9479-8.3278-9.5632-5.2485 9.747c-1.5912 2.9646-2.9602 5.3296-4.1069 7.095 2.1216-1.2159 4.3587-2.2731 6.7115-3.1716z"/><path d="m125.5 648.74-3.6693 2.4075-8.7137-13.234 11.605-7.6146c2.9557 0.96998 5.5517 2.2675 7.7878 3.8927 2.2362 1.6252 4.1008 3.5756 5.5938 5.851 2.0156 3.072 3.1892 6.2946 3.5206 9.6679 0.33149 3.3734-0.32727 6.5165-1.9763 9.4295-1.649 2.913-4.0095 5.3773-7.0814 7.3929-3.0435 1.9969-6.3019 3.2245-9.7753 3.6826-3.4733 0.45812-6.6338-0.0875-9.4815-1.637-2.8476-1.5495-5.2933-3.8815-7.3369-6.9961-1.4837-2.2613-2.4589-4.546-2.9256-6.8541-0.46662-2.3081-0.38635-4.4105 0.24082-6.3072 0.62727-1.8967 1.816-3.8058 3.5662-5.7273l3.4735 3.0614c-1.2849 1.5145-2.1538 2.9187-2.6068 4.2128-0.45292 1.2941-0.52858 2.7679-0.227 4.4213 0.30167 1.6535 0.97038 3.2695 2.0061 4.8482 1.2411 1.8915 2.6022 3.3381 4.0834 4.3397s2.9687 1.6176 4.4625 1.8479c1.4939 0.23032 2.9566 0.21155 4.388-0.0563 2.4568-0.47267 4.8158-1.4509 7.0771-2.9346 2.7875-1.829 4.805-3.8393 6.0524-6.0311 1.2474-2.1917 1.7244-4.5035 1.4308-6.9354-0.29355-2.4318-1.1169-4.6789-2.47-6.7411-1.1758-1.792-2.6684-3.315-4.478-4.569-1.8095-1.254-3.3947-2.0653-4.7555-2.4339l-5.8239 3.8213z"/><path d="m125.58 620.07-33.143 17.34-2.2947-4.3859 33.143-17.34z"/><path d="m108.71 614.17-2.1694-4.1548c1.6429-0.92245 2.8629-1.9869 3.6601-3.1933 0.79719-1.2064 1.2109-2.737 1.2412-4.5917s-0.36266-3.7638-1.1789-5.7271c-0.72477-1.7434-1.6238-3.175-2.6972-4.2946-1.0733-1.1196-2.1971-1.8176-3.3712-2.094-1.1741-0.27636-2.2952-0.19254-3.3633 0.25145-1.0837 0.45057-1.8995 1.1581-2.4472 2.1226-0.5477 0.96457-0.79606 2.2836-0.7451 3.9572 0.02401 1.0769 0.31461 3.3601 0.87179 6.8496 0.55722 3.4895 0.76258 6.0107 0.61606 7.5638-0.17824 2.0084-0.73929 3.6831-1.6832 5.0241-0.94381 1.3411-2.2089 2.3413-3.7953 3.0008-1.7434 0.72479-3.5787 0.90747-5.5058 0.54805-1.927-0.35943-3.6783-1.3262-5.2538-2.9002-1.5754-1.574-2.8463-3.5234-3.8127-5.848-1.0643-2.5602-1.5906-4.9895-1.579-7.2878 0.01171-2.2983 0.59986-4.3066 1.7644-6.025 1.1647-1.7184 2.7437-3.038 4.7372-3.9589l2.1516 4.2451c-2.0853 1.1432-3.4031 2.626-3.9535 4.4482-0.55034 1.8223-0.27377 4.0606 0.8297 6.7151 1.1493 2.7644 2.4932 4.5682 4.0319 5.4115 1.5388 0.84323 3.0228 0.96776 4.4521 0.37356 1.2409-0.51584 2.0757-1.3879 2.5046-2.6162 0.43542-1.2126 0.30114-3.8509-0.40283-7.9149-0.70391-4.064-1.0291-6.9177-0.97541-8.5611 0.09094-2.3957 0.64798-4.3681 1.6711-5.9172 1.0232-1.549 2.4615-2.7088 4.3149-3.4793 1.8377-0.76395 3.7881-0.95766 5.8513-0.58114 2.0632 0.37657 3.956 1.3627 5.6786 2.9584 1.7226 1.5958 3.0965 3.6266 4.1216 6.0926 1.2994 3.1257 1.9327 5.9342 1.9 8.4254-0.0328 2.4913-0.7143 4.7181-2.0446 6.6804s-3.1369 3.4548-5.4197 4.4774z"/><path d="m107.32 579.52-39.881-3.8749-1.4214-5.1397 31.971-24.726 1.503 5.4348-9.7559 7.2249 4.1691 15.075 12.014 0.93963zm-17.681-6.3082-3.3801-12.222-8.9438 6.5238c-2.7156 1.9864-4.9718 3.5281-6.7686 4.6251 2.4386-0.18024 4.913-0.16742 7.423 0.0385z"/><path d="m80.35 526.43-4.3484 0.5923-2.1637-15.696 13.753-1.8733c2.2497 2.1485 4.0336 4.4377 5.3517 6.8675 1.3181 2.4299 2.1608 4.9932 2.5281 7.6899 0.49588 3.6406 0.1669 7.0544-0.98695 10.242-1.1538 3.1872-3.1022 5.7401-5.8451 7.6587s-5.9346 3.1259-9.5752 3.6218c-3.6068 0.49129-7.0762 0.19562-10.408-0.88699-3.3319-1.0826-5.9492-2.9364-7.8518-5.5613-1.9025-2.6249-3.1052-5.7829-3.608-9.4741-0.36498-2.6798-0.26099-5.1618 0.31198-7.4458 0.57304-2.284 1.5511-4.1468 2.934-5.5884 1.3831-1.4415 3.2782-2.6524 5.6854-3.6327l1.8161 4.259c-1.8119 0.81334-3.201 1.7064-4.1672 2.6792-0.96616 0.97282-1.6692 2.2703-2.1093 3.8924-0.43995 1.6222-0.53253 3.3686-0.27774 5.2395 0.30537 2.2416 0.91068 4.1334 1.8159 5.6753 0.90532 1.5419 1.9825 2.7385 3.2314 3.5898 1.249 0.85133 2.5771 1.4644 3.9844 1.8392 2.4208 0.63164 4.9711 0.76494 7.6509 0.39992 3.3035-0.44996 5.9901-1.3953 8.0599-2.836s3.496-3.3216 4.2785-5.6428c0.78254-2.3211 1.0074-4.7036 0.67448-7.1476-0.28925-2.1236-0.98035-4.1411-2.0733-6.0523-1.0929-1.9112-2.174-3.3261-3.2434-4.2448l-6.9019 0.9401z"/><path d="m92.092 486.98-37.345-2.1235 0.28826-5.0693 30.436-17.948-29.321-1.6672 0.26942-4.7382 37.345 2.1235-0.28826 5.0693-30.461 17.946 29.346 1.6687z"/><path d="m83.767 429.18-4.3029-0.86305 3.091-15.54 13.609 2.7297c1.4229 2.7663 2.3596 5.5132 2.8101 8.2405 0.45051 2.7274 0.40815 5.4253-0.12708 8.0938-0.72256 3.6024-2.1504 6.7208-4.2835 9.355s-4.8095 4.4091-8.0292 5.3247c-3.2197 0.91561-6.6307 1.0121-10.233 0.28957-3.569-0.71586-6.7508-2.1304-9.5451-4.2436s-4.661-4.7213-5.6001-7.8242c-0.93899-3.1029-1.0422-6.4806-0.30964-10.133 0.53192-2.6518 1.4422-4.9631 2.731-6.9339s2.8225-3.4111 4.601-4.3208c1.7786-0.90969 3.9656-1.4339 6.561-1.5726l0.3227 4.6188c-1.9783 0.17575-3.5831 0.56517-4.8144 1.1682-1.2313 0.60316-2.3202 1.5992-3.2667 2.988-0.94648 1.3889-1.6054 3.009-1.9767 4.8602-0.44488 2.2182-0.49185 4.2039-0.14091 5.9571 0.351 1.7533 0.97734 3.2364 1.879 4.4495 0.90173 1.2131 1.9562 2.227 3.1633 3.0416 2.0809 1.3889 4.4472 2.3493 7.099 2.8812 3.2689 0.65566 6.117 0.6414 8.5442-0.0428 2.4273-0.68418 4.3904-1.995 5.8893-3.9323s2.4909-4.1152 2.9759-6.5335c0.42149-2.1014 0.42851-4.2339 0.02106-6.3975-0.40746-2.1636-0.96612-3.8544-1.676-5.0724l-6.8296-1.3699z"/><path d="m107.88 395.73-34.657-14.072 5.3082-13.073c0.93432-2.301 1.7582-4.0135 2.4715-5.1375 0.97484-1.5869 2.0938-2.794 3.3568-3.6214 1.2631-0.82731 2.7541-1.3005 4.473-1.4195 1.719-0.11896 3.4374 0.17029 5.1553 0.86777 2.9472 1.1967 5.0605 3.1471 6.34 5.8513s0.92411 6.5071-1.0661 11.409l-3.6092 8.8889 14.09 5.721zm-16.317-11.968 3.638-8.9598c1.2031-2.9629 1.5058-5.2909 0.90807-6.984-0.59768-1.693-1.8973-2.9459-3.8989-3.7586-1.4499-0.5887-2.8399-0.72621-4.1698-0.41254-1.3299 0.31374-2.4034 1.0023-3.2208 2.0657-0.51843 0.6891-1.2 2.0738-2.0447 4.1542l-3.5996 8.8652z"/><path d="m119.49 367.15-25.656-30.777 2.5997-4.6561 40.122 4.8684-2.7489 4.9234-12.018-1.7133-7.6249 13.656 7.8887 9.1095zm-8.1497-16.912 6.182-11.072-10.948-1.6416c-3.328-0.49444-6.0167-0.9826-8.0661-1.4645 1.8619 1.5851 3.6136 3.3327 5.2551 5.2428z"/><path d="m138.85 333.32-30.042-22.285 3.025-4.078 35.292 1.7173-23.587-17.497 2.8274-3.8116 30.042 22.285-3.025 4.078-35.312-1.7325 23.607 17.512z"/><path d="m163.63 280.44-3.1226-3.0837 11.116-11.292 9.876 9.7532c-0.32948 3.0933-1.0546 5.9034-2.1755 8.4303s-2.6375 4.7586-4.5498 6.6951c-2.5817 2.6142-5.4872 4.4367-8.7163 5.4672-3.2291 1.0306-6.4406 1.0447-9.6343 0.0423s-6.0977-2.7945-8.712-5.3762c-2.59-2.5578-4.4727-5.4869-5.6481-8.7873-1.1753-3.3004-1.3036-6.5051-0.38493-9.6141 0.91876-3.109 2.6869-5.9888 5.3045-8.6393 1.9004-1.9243 3.9302-3.3564 6.0894-4.2961 2.1592-0.93964 4.2318-1.3014 6.2178-1.0854 1.986 0.21616 4.1017 0.97873 6.3471 2.2877l-2.2661 4.0376c-1.75-0.93923-3.3051-1.4948-4.6653-1.6668-1.3602-0.17187-2.8172 0.0628-4.3708 0.70394-1.5536 0.64124-2.9938 1.6336-4.3205 2.9769-1.5897 1.6097-2.7191 3.2436-3.3883 4.9016-0.66921 1.6581-0.96 3.2416-0.87239 4.7506 0.0876 1.509 0.41231 2.9353 0.974 4.2789 0.97668 2.3033 2.4272 4.4052 4.3516 6.3056 2.3722 2.3427 4.7605 3.8944 7.1648 4.6552 2.4044 0.76079 4.7648 0.74301 7.0812-0.0533 2.3164-0.79632 4.3412-2.0719 6.0743-3.8269 1.506-1.525 2.6826-3.3035 3.53-5.3355 0.84728-2.032 1.3086-3.7519 1.384-5.1597l-4.9562-4.8945z"/><path d="m187.6 277.32-11.417-38.408 4.2271-3.251 34.939 20.317-4.4698 3.4376-10.365-6.3202-12.398 9.5352 3.6501 11.484zm-0.80875-18.755 10.052-7.7308-9.4098-5.8316c-2.8623-1.7685-5.1397-3.2788-6.8321-4.5308 1.0846 2.1916 2.0038 4.4889 2.7576 6.8919z"/><path d="m218.73 254.14-19.256-32.068 4.2437-2.5482 16.983 28.284 15.793-9.4834 2.2723 3.7843z"/><path d="m240.27 241.01-2.3954-39.997 4.855-2.206 29.411 27.722-5.1337 2.3326-8.6587-8.509-14.24 6.4702 0.94647 12.013zm3.472-18.449 11.545-5.2458-7.8394-7.8163c-2.3858-2.3724-4.2607-4.3604-5.6246-5.9641 0.55855 2.3806 0.93197 4.8267 1.1203 7.3381z"/><path d="m282.17 223.12-19.765-33.271 4.8844-1.387 12.171 22.033c1.2907 2.3036 2.4949 4.614 3.6127 6.9313-0.17558-4.1055-0.26518-6.4761-0.26881-7.1116l-0.0519-26.244 5.7435-1.6309 10.326 16.749c2.5751 4.1492 4.7135 8.1306 6.4153 11.944-0.18771-2.4046-0.33156-5.1841-0.43153-8.3386l-0.92007-24.724 4.7862-1.3591 0.35043 38.784-4.5899 1.3033-15.369-25.263c-1.2887-2.1096-2.0646-3.41-2.3278-3.9011 0.0929 1.7596 0.1407 3.2667 0.14335 4.5214l0.15162 29.584z"/><path d="m319.54 213.06 9.5196-38.921 5.2898-0.67434 19.916 35.169-5.5936 0.71306-5.7606-10.686-15.515 1.9778-2.6424 11.757zm8.7639-16.602 12.579-1.6036-5.1824-9.7823c-1.5791-2.971-2.7835-5.4239-3.6131-7.3588-0.16917 2.4394-0.53454 4.8867-1.0961 7.3418z"/><path d="m358.26 208.55 0.11793-37.405 5.0775 0.016 19.554 29.43 0.0926-29.368 4.7458 0.015-0.11794 37.405-5.0775-0.016-19.554-29.455-0.0927 29.393z"/><path d="m415.54 197.13 0.63016-4.3431 15.684 2.2499-1.9931 13.736c-2.6857 1.5698-5.3781 2.653-8.0773 3.2497-2.6992 0.59668-5.3955 0.69962-8.0889 0.30883-3.6361-0.52759-6.8268-1.7855-9.572-3.7737s-4.6616-4.5652-5.7492-7.731c-1.0876-3.1657-1.3676-6.5666-0.84004-10.203 0.52269-3.6024 1.7639-6.8556 3.7236-9.7597 1.9597-2.904 4.4635-4.9084 7.5114-6.0132 3.0479-1.1047 6.4151-1.3896 10.102-0.85469 2.6765 0.38839 5.0335 1.173 7.0709 2.3537 2.0373 1.1808 3.5581 2.6347 4.5623 4.3617 1.0041 1.727 1.6453 3.8826 1.9235 6.4668l-4.5947 0.57087c-0.28199-1.966-0.75724-3.5475-1.4257-4.7445-0.66857-1.197-1.7218-2.2307-3.1596-3.1011-1.4379-0.87034-3.0911-1.4411-4.9596-1.7122-2.2389-0.32482-4.2243-0.26483-5.956 0.17999-1.7318 0.44487-3.1791 1.1502-4.3419 2.1158-1.1628 0.96573-2.1185 2.0732-2.8669 3.3224-1.2749 2.1526-2.1065 4.5672-2.4948 7.2438-0.47874 3.2994-0.31116 6.1426 0.50272 8.5295 0.81385 2.3869 2.2284 4.2766 4.2437 5.669 2.0152 1.3924 4.2433 2.2658 6.6842 2.6199 2.121 0.30775 4.2508 0.19996 6.3894-0.32338 2.1385-0.52334 3.7968-1.1722 4.9748-1.9466l1.0002-6.8934z"/><path d="m450.23 219.41 12.2-35.36 13.338 4.6021c2.3476 0.81004 4.1017 1.5412 5.2622 2.1935 1.6367 0.88866 2.9019 1.9415 3.7956 3.1585 0.89361 1.2171 1.4458 2.6807 1.6565 4.3908 0.21064 1.7102 0.0136 3.4416-0.5911 5.1943-1.0375 3.0069-2.8723 5.2215-5.5042 6.6436-2.632 1.4221-6.4484 1.2705-11.449-0.455l-9.069-3.1291-4.96 14.375zm11.079-16.934 9.1414 3.1541c3.023 1.043 5.3638 1.2209 7.0225 0.53362 1.6586-0.68727 2.8403-2.052 3.5449-4.0941 0.51039-1.4793 0.57345-2.8746 0.18917-4.1858-0.38435-1.3112-1.1293-2.3465-2.2348-3.1058-0.71582-0.48087-2.135-1.0875-4.2575-1.8199l-9.0449-3.1208z"/><path d="m479.39 229.47 29.384-27.241 4.7865 2.3509-2.7491 40.323-5.0613-2.4859 1.0781-12.092-14.039-6.8953-8.6815 8.3574zm16.459-9.0288 11.382 5.5905 1.0629-11.019c0.31852-3.3495 0.66444-6.0601 1.0377-8.132-1.4849 1.9428-3.1378 3.7841-4.9588 5.5239z"/><path d="m514.2 247.04 20.652-31.187 4.2334 2.8034 0.16584 35.333 16.215-24.486 3.9569 2.6203-20.652 31.187-4.2334-2.8034-0.15175-35.354-16.229 24.507z"/><path d="m568.33 268.95 2.9112-3.284 11.874 10.492-9.2077 10.386c-3.1066-0.16257-5.9516-0.73547-8.5352-1.7187-2.5836-0.98328-4.8936-2.3776-6.9302-4.183-2.7494-2.4373-4.7255-5.2405-5.9283-8.4095s-1.3897-6.375-0.56057-9.6181c0.82911-3.243 2.4623-6.2392 4.8997-8.9886 2.4147-2.7239 5.2383-4.7615 8.4707-6.1127 3.2323-1.3512 6.4255-1.6518 9.5795-0.90166 3.1539 0.75015 6.1246 2.3608 8.9122 4.832 2.0238 1.7942 3.563 3.744 4.6175 5.8495 1.0544 2.1055 1.5272 4.1556 1.4183 6.1504-0.10898 1.9948-0.75661 4.1484-1.9429 6.461l-4.1537-2.0456c0.84371-1.798 1.3148-3.3807 1.4133-4.7482 0.0984-1.3675-0.21427-2.8098-0.93809-4.3266-0.72391-1.5169-1.7923-2.9016-3.2051-4.1541-1.6929-1.5008-3.3852-2.5406-5.0768-3.1197-1.6917-0.57902-3.2886-0.78419-4.7906-0.61551-1.5021 0.1687-2.9089 0.56964-4.2203 1.2028-2.2474 1.0992-4.2682 2.6607-6.0623 4.6845-2.2117 2.4948-3.6326 4.9631-4.2629 7.4049-0.63031 2.4418-0.48556 4.7979 0.43427 7.0681 0.9198 2.2702 2.3025 4.2234 4.1482 5.8596 1.6038 1.4218 3.443 2.501 5.5177 3.2378 2.0747 0.73672 3.8169 1.1048 5.2267 1.1044l4.6208-5.2123z"/><path d="m619.86 290.26 3.2049 3.7723-16.47 13.993c-2.8649 2.4339-5.4153 4.0427-7.6512 4.8263-2.2359 0.78356-4.6008 0.7783-7.0945-0.0158-2.4938-0.79413-4.9081-2.5653-7.2429-5.3135-2.2688-2.6704-3.6643-5.2457-4.1867-7.7259-0.52237-2.4801-0.22014-4.8238 0.90667-7.0311 1.1268-2.2072 3.2004-4.5939 6.2209-7.1601l16.47-13.993 3.2049 3.7723-16.45 13.976c-2.476 2.1036-4.1051 3.8838-4.8873 5.3407-0.78221 1.4569-1.0146 3.0158-0.69711 4.6768 0.31745 1.661 1.1645 3.3017 2.5412 4.9221 2.3568 2.7741 4.6651 4.2169 6.9248 4.3282 2.2596 0.11134 5.1784-1.3528 8.7563-4.3925z"/><path d="m599.22 324.86 31.204-20.626 2.7295 4.1294-27.522 18.192 10.158 15.368-3.6824 2.434z"/><path d="m630.93 339.98c5.5649-2.753 10.661-3.4141 15.287-1.9833 4.6267 1.4308 8.1091 4.5094 10.447 9.2358 1.5311 3.095 2.1719 6.2509 1.9224 9.4677-0.24953 3.2168-1.3745 6.1313-3.3748 8.7435-2.0004 2.6122-4.6777 4.7479-8.0319 6.4073-3.4 1.6819-6.781 2.5006-10.143 2.4559-3.3622-0.0447-6.3555-0.98363-8.9798-2.8167-2.6243-1.8331-4.6568-4.2057-6.0974-7.1177-1.5613-3.156-2.1943-6.3537-1.8991-9.5931 0.29522-3.2394 1.4449-6.1519 3.4489-8.7374s4.4774-4.6062 7.4199-6.0618zm2.1941 4.6079c-4.0403 1.9988-6.6856 4.6595-7.9359 7.9824-1.2503 3.3228-1.0646 6.6232 0.55701 9.9012 1.6518 3.3389 4.1853 5.5063 7.6005 6.5022 3.4152 0.99581 7.2802 0.42647 11.595-1.708 2.7291-1.3501 4.8832-2.9898 6.4623-4.9191 1.579-1.9293 2.4895-4.0593 2.7315-6.3898 0.24188-2.3306-0.18399-4.6012-1.2776-6.812-1.5538-3.1408-3.9694-5.3096-7.2468-6.5064s-7.4394-0.54697-12.486 1.9496z"/><path d="m637.61 399.73 36.067-9.9155 1.346 4.8959-23.109 26.729 28.317-7.785 1.258 4.576-36.067 9.9155-1.346-4.8958 23.134-26.735-28.342 7.7917z"/><path d="m663.99 451.82 4.3523-0.56349 2.0598 15.71-13.765 1.7822c-2.2354-2.1634-4.0041-4.4643-5.3061-6.9028-1.302-2.4386-2.1277-5.0074-2.4771-7.7064-0.47176-3.6438-0.12018-7.0554 1.0547-10.235 1.1749-3.1795 3.1402-5.7194 5.8957-7.6198 2.7556-1.9004 5.9552-3.0866 9.599-3.5583 3.61-0.46739 7.0774-0.14876 10.402 0.95589 3.3247 1.1047 5.9296 2.9757 7.8148 5.6132 1.8851 2.6375 3.0668 5.8034 3.5452 9.4978 0.34723 2.6822 0.2268 5.1634-0.36127 7.4436-0.58816 2.2802-1.5785 4.1364-2.971 5.5688-1.3926 1.4324-3.2957 2.6307-5.7093 3.595l-1.7879-4.2709c1.8172-0.80133 3.2122-1.6852 4.1848-2.6515 0.97257-0.96639 1.6842-2.2592 2.135-3.8783 0.45068-1.6192 0.55482-3.365 0.31243-5.2375-0.29052-2.2436-0.88329-4.1394-1.7783-5.6872-0.89509-1.5479-1.9643-2.7516-3.2076-3.6112-1.2434-0.85958-2.5674-1.4814-3.9721-1.8656-2.4166-0.64765-4.9659-0.79784-7.6481-0.45057-3.3064 0.42807-5.9992 1.3556-8.0785 2.7826s-3.5179 3.2984-4.3158 5.6143c-0.79789 2.3159-1.0385 4.6969-0.72179 7.1429 0.27518 2.1255 0.9529 4.1475 2.0332 6.0659 1.0802 1.9184 2.152 3.3404 3.2152 4.2662l6.908-0.89438z"/><path d="m651.91 491.24 37.342 2.1808-0.82264 14.086c-0.14483 2.4792-0.37427 4.3657-0.68834 5.6594-0.4128 1.8161-1.0842 3.3189-2.0141 4.5085-0.92998 1.1895-2.1896 2.117-3.779 2.7824-1.5894 0.66538-3.3096 0.94404-5.1605 0.83597-3.1755-0.18548-5.8037-1.3528-7.8848-3.502-2.081-2.1492-2.9674-5.8644-2.6589-11.145l0.55934-9.5774-15.181-0.8866zm19.299 6.0855-0.5638 9.6538c-0.18646 3.1924 0.27548 5.4941 1.3858 6.9051 1.1103 1.4109 2.7438 2.1793 4.9004 2.3053 1.5622 0.0912 2.9226-0.2255 4.081-0.95014 1.1584-0.72469 1.9535-1.7219 2.3855-2.9916 0.26932-0.81921 0.46945-2.3496 0.60039-4.591l0.55784-9.5519z"/><path d="m648.95 526.85 37 5.4876-0.72618 4.8964-37-5.4876z"/><path d="m646.96 540.16 36.456 8.3745-1.1082 4.8243-32.154-7.3863-4.1244 17.954-4.302-0.98826z"/><path d="m639.56 569.36 35.687 11.207-1.483 4.7225-35.687-11.207z"/><path d="m635.55 582.43 34.558 14.314-5.3994 13.036c-0.95037 2.2944-1.7862 4.0011-2.5074 5.1201-0.98589 1.58-2.1132 2.7794-3.382 3.5979-1.2688 0.81846-2.7631 1.2812-4.4828 1.3882-1.7198 0.10696-3.4361-0.1943-5.1491-0.90376-2.9388-1.2173-5.0384-3.1824-6.299-5.8954-1.2606-2.7131-0.87864-6.5134 1.1457-11.401l3.6712-8.8635-14.05-5.8192zm16.233 12.082-3.7005 8.9342c-1.2237 2.9545-1.5427 5.2803-0.95682 6.9775 0.58583 1.6971 1.8767 2.959 3.8726 3.7857 1.4458 0.59881 2.8347 0.74603 4.1668 0.44165 1.332-0.30444 2.4104-0.98549 3.2351-2.0431 0.52323-0.68546 1.2145-2.0654 2.0737-4.1398l3.6614-8.8399z"/><path d="m621.07 615.1 33.174 17.28-2.2867 4.3901-33.174-17.28z"/><path d="m614.93 627.26 31.442 20.262-2.7504 4.2681-35.328 0.60657 24.686 15.908-2.5707 3.9892-31.442-20.262 2.7504-4.2681 35.35-0.59275-24.708-15.922z"/><path d="m596.58 655.59 19.271 35.13-3.4451 4.0704-38.442-12.48 3.6429-4.3042 11.466 3.9884 10.105-11.939-5.9934-10.454zm4.7518 18.161-8.1924 9.6795 10.429 3.7126c3.1712 1.1241 5.7162 2.1193 7.635 2.9856-1.523-1.913-2.9067-3.9644-4.151-6.154z"/><path d="m580.35 692.77-3.1637 3.4583c-1.4282-1.2289-2.8454-2.0118-4.2516-2.3489-1.4062-0.33705-2.986-0.20298-4.7395 0.40223-1.7535 0.60519-3.4134 1.6267-4.9798 3.0646-1.3909 1.2768-2.4292 2.6108-3.1147 4.0021-0.68552 1.3912-0.95759 2.6858-0.81622 3.8838 0.1414 1.1979 0.60319 2.2229 1.3854 3.075 0.79372 0.86461 1.7374 1.3895 2.831 1.5748 1.0936 0.1852 2.4182-0.032 3.9736-0.65169 1.0039-0.39049 3.0504-1.4436 6.1396-3.1594 3.0891-1.7159 5.3885-2.7702 6.8982-3.1631 1.9484-0.51862 3.714-0.56349 5.2969-0.1346 1.5828 0.42885 2.9551 1.2761 4.117 2.5418 1.2768 1.3909 2.0755 3.0533 2.3961 4.9873 0.32057 1.9339 0.0103 3.91-0.93077 5.9285-0.94112 2.0184-2.339 3.8788-4.1935 5.5812-2.0426 1.8749-4.1458 3.1996-6.3098 3.9738-2.164 0.77419-4.2524 0.90758-6.2653 0.40017-2.0129-0.5075-3.7926-1.5407-5.3391-3.0997l3.2546-3.4725c1.7869 1.5692 3.6306 2.3012 5.5313 2.1959 1.9006-0.10534 3.9098-1.13 6.0276-3.074 2.2054-2.0246 3.4416-3.9039 3.7084-5.6381 0.26679-1.7343-0.12319-3.1715-1.17-4.3118-0.90874-0.98997-2.0136-1.4766-3.3145-1.46-1.2884 5e-3 -3.7221 1.0326-7.301 3.0827-3.579 2.05-6.1499 3.3305-7.7127 3.8416-2.2826 0.73302-4.3266 0.88336-6.132 0.45102-1.8054-0.43241-3.3868-1.3879-4.7441-2.8665-1.3458-1.4662-2.1942-3.233-2.5452-5.3006-0.35096-2.0677-0.0708-4.1836 0.84035-6.3477 0.91123-2.1642 2.3505-4.1492 4.3179-5.9552 2.4937-2.2891 4.9168-3.8438 7.2694-4.6642 2.3526-0.82036 4.6782-0.94059 6.9769-0.3607 2.2987 0.57987 4.3186 1.7678 6.0596 3.5639z"/></g></svg>
